<?xml version="1.0" encoding="UTF-8"?>
<svg width="255px" height="169px" viewBox="0 0 255 169" version="1.1" xmlns="http://www.w3.org/2000/svg" xmlns:xlink="http://www.w3.org/1999/xlink">
    <title>flower</title>
    <defs>
        <polygon id="path-1" points="0 0 255 0 255 169 0 169"></polygon>
    </defs>
    <g id="Page-1" stroke="none" stroke-width="1" fill="none" fill-rule="evenodd">
        <g id="Artboard" transform="translate(-67.000000, -49.000000)">
            <g id="Group" transform="translate(67.000000, 49.000000)">
                <mask id="mask-2" fill="white">
                    <use xlink:href="#path-1"></use>
                </mask>
                <g id="Clip-2"></g>
                <path d="M195.883657,11.4417008 C195.938784,11.6449893 195.985122,11.8531854 196.184774,11.9745339 C197.313106,13.9153672 198.163714,15.960001 198.500143,18.1943906 C198.55527,18.560667 198.590135,18.9299175 198.634386,19.2978297 C198.984969,20.2372399 198.85162,21.2170997 198.854004,22.1819397 C198.854749,22.5159456 198.839104,22.8710686 198.689216,23.1906495 C198.171611,26.5805272 196.952838,29.7049549 195.100096,32.5881726 C194.115394,34.2321778 192.989893,35.7771411 191.779464,37.2617276 C190.719222,38.4897868 189.744502,39.797258 188.793622,40.5927155 C189.762531,39.9577176 191.159649,39.2766191 192.540973,38.5671168 C193.464588,37.9440158 194.511421,37.5680732 195.506999,37.089371 C196.295923,36.7581906 197.055197,36.3603875 197.851571,36.0461602 C198.017551,35.9994648 198.17027,35.9126173 198.340421,35.8772239 C198.632747,35.6940114 198.968282,35.6156405 199.283405,35.4871538 C199.417052,35.4397148 199.538632,35.3658052 199.668853,35.3103359 C201.083999,34.7203975 202.541459,34.2513616 204.001304,33.7890177 C204.422957,33.6132407 204.868152,33.5130092 205.303662,33.3799124 C206.169169,33.1389999 207.032292,32.8888672 207.918062,32.7291511 C208.94031,32.4751519 209.981034,32.308149 211.005667,32.0624776 C211.570951,32.2315626 212.110757,32.1369821 212.637898,31.9063306 C214.607749,31.7133031 216.575664,31.464955 218.559372,31.7244565 C218.954206,31.9503492 219.364089,31.8058017 219.762648,31.7555372 C220.329422,31.6837095 220.8734,31.6790995 221.361653,32.0310995 C221.41395,32.0501346 221.465949,32.0691696 221.518097,32.0882047 C221.85989,31.9806863 222.207344,32.0059673 222.555394,32.0409145 C224.25497,32.546236 226.004013,32.8835136 227.622834,33.6611258 C229.642747,34.6313193 231.512326,35.7991504 233.067377,37.429028 C234.062509,38.4377378 234.786472,39.6437877 235.545597,40.8247054 C235.810955,41.3417752 236.053518,41.8698495 236.288184,42.402534 C236.686296,43.7378142 237.199879,45.045434 237.258582,46.4608697 C237.296278,46.7001464 237.330845,46.9394231 237.365709,47.179146 C237.462704,47.6391105 237.357068,48.1016032 237.385227,48.5621626 C237.374351,48.7728867 237.431714,48.9848005 237.376139,49.1944837 C237.219397,49.9631732 237.337698,50.7660664 237.089921,51.5234538 C237.005739,52.2292384 236.774798,52.9017116 236.613438,53.5899482 C236.528511,53.7984417 236.476065,54.0161553 236.440754,54.2381815 C236.2931,54.6771777 236.06499,55.0897033 235.999284,55.5566573 C235.946689,55.7606894 235.892157,55.9648702 235.796205,56.1543286 C235.592232,56.4202247 235.394368,56.690136 235.291711,57.0162602 C235.239265,57.2186565 235.14078,57.4014229 235.051979,57.5883532 C234.277508,58.9622984 233.485455,60.3250902 232.550368,61.5991012 C232.056899,62.2144692 231.541529,62.8119919 231.044037,63.4243856 C230.285806,64.4043941 229.343865,65.2108564 228.496386,66.1069916 C227.35524,67.1402388 226.164628,68.1145963 224.945856,69.0547501 C224.87419,69.1297007 224.800438,69.2025693 224.722961,69.2717202 C223.56185,70.0741672 222.36945,70.8296214 221.177795,71.5859679 C221.061281,71.662703 220.938659,71.7279873 220.813951,71.7894051 C220.30752,72.0120262 219.874692,72.3674466 219.367814,72.5894728 C218.147403,73.3803203 216.799453,73.9253478 215.512144,74.5868164 C215.261387,74.7010268 214.997816,74.7843052 214.747804,74.9011924 C214.623394,74.959636 214.498239,75.016295 214.373531,75.0748874 C213.984954,75.2389161 213.593397,75.3952118 213.204076,75.5573073 C212.351382,75.9042512 211.494666,76.2400416 210.638248,76.5777654 C208.568272,77.3138871 206.493529,78.0342454 204.347864,78.524547 C204.117817,78.524547 203.918463,78.6629974 203.690651,78.6726637 C203.153676,78.7632289 202.621171,78.8820494 202.080025,78.946144 C202.013424,78.9688969 201.945483,78.9888242 201.877244,79.0057773 C201.241635,79.0820663 200.636271,79.2581407 200.101383,79.5521432 C201.158049,80.0579109 202.366093,79.7851741 203.487125,80.0800689 C206.687966,80.392363 209.84843,80.9326317 212.965834,81.7264534 C214.031887,81.9978519 215.108221,82.2288007 216.179935,82.4783386 C216.67698,82.7431937 217.283684,82.5409461 217.770746,82.8496711 C219.57432,83.2906006 221.279707,84.0111076 223.005208,84.6737658 C223.547099,84.8791363 224.075582,85.1160337 224.596465,85.3698842 C226.411661,86.1327739 228.169493,87.0121048 229.891865,87.9631146 C230.282826,88.2702037 230.747539,88.4529701 231.168298,88.7100922 C233.137107,89.8071366 235.018754,91.0377239 236.821583,92.3886188 C238.205738,93.4246915 239.580656,94.4725125 240.838613,95.6625016 C241.069852,95.888543 241.337744,96.0747297 241.562129,96.309099 C241.736154,96.4561746 241.776681,96.6915848 241.925377,96.855911 C242.498706,97.4721713 243.014226,98.1467265 243.722246,98.6266183 C244.384376,99.4286192 245.092247,100.188981 245.842432,100.910678 C246.021672,101.271749 246.293885,101.554301 246.600217,101.808746 C246.83816,102.185581 247.07372,102.564052 247.448887,102.826676 C248.394404,103.652322 249.158297,104.60586 249.55775,105.815181 C249.681266,106.112902 249.76068,106.443339 250.116776,106.569446 C250.129888,107.264821 250.70575,107.673926 250.987051,108.233825 C251.503316,109.261421 252.079774,110.259275 252.541656,111.315126 C253.274856,113.083454 253.987644,114.859812 254.404827,116.735064 C254.596434,117.596103 254.869838,118.442123 254.889505,119.336919 C254.923476,120.886047 255.082453,122.421641 254.944782,123.987275 C254.61923,127.690488 253.15566,130.784133 250.383029,133.261814 C250.272922,133.359964 250.132867,133.424653 250.116925,133.593887 C248.506001,135.37084 246.343202,136.129417 244.141515,136.813044 C243.906999,136.885764 243.661456,136.936028 243.41204,136.865539 C242.388301,137.048305 241.325973,137.035367 240.351403,137.466928 C240.17112,137.596753 239.989496,137.60865 239.806531,137.47243 C238.194862,137.474215 236.583043,137.475702 234.971373,137.477784 C232.210065,137.481502 229.526383,136.920562 226.83242,136.4026 C224.965374,136.043462 223.116953,135.591231 221.313379,135.028655 C219.149835,134.353802 216.981077,133.67434 214.860145,132.855981 C214.165088,132.588003 213.481801,132.17518 212.713438,132.114803 C212.685427,132.176667 212.657416,132.238382 212.629554,132.300246 C213.346812,132.79263 214.064964,133.283675 214.781327,133.777546 C217.769554,135.837199 220.687455,137.988162 223.403469,140.401154 C223.457256,140.44889 223.532796,140.472387 223.598353,140.507334 C223.661825,140.509267 223.696242,140.541984 223.701606,140.605186 C224.269423,141.187094 224.793584,141.81659 225.499667,142.247853 C225.965423,142.33708 226.106223,142.733842 226.295147,143.085247 C226.962194,143.896319 227.644438,144.695495 228.292562,145.521438 C229.189507,146.664732 229.851786,147.938297 230.349724,149.303022 C230.537904,149.819051 230.336911,150.394118 230.633856,150.883676 C230.936612,151.350927 230.683024,151.757356 230.492759,152.170625 C229.47945,154.720729 227.296239,155.646012 224.853331,156.19788 C224.580672,156.259446 224.334086,156.350755 224.097335,156.487272 C223.415686,156.878978 222.685615,156.652045 221.973274,156.652639 C221.765129,156.4956 221.586337,156.538429 221.429893,156.732349 C221.078714,156.989471 220.718446,157.11885 220.327634,156.809381 L218.552071,156.818899 C217.846435,156.865594 217.151824,157.203764 216.432927,156.899203 C215.397567,156.697253 214.340454,156.857415 213.301518,156.718072 C212.580833,156.432546 211.824986,156.397153 211.062136,156.411876 C208.356104,155.985817 205.680468,155.410899 203.021519,154.758353 C202.397978,154.60518 201.785016,154.408881 201.146576,154.321141 C199.161528,153.691794 197.124033,153.237927 195.156267,152.551029 C195.082664,152.535711 195.011445,152.511323 194.942759,152.48158 C194.384925,152.226392 193.827389,151.969418 193.207573,151.893724 C192.803352,151.727762 192.388999,151.58946 191.972114,151.457999 C190.719818,151.087708 189.53606,150.527214 188.290618,150.13878 C187.64443,149.804179 186.939688,149.607285 186.283667,149.294991 C185.280191,148.926484 184.302343,148.498641 183.334477,148.046707 C182.568051,147.706604 181.835894,147.28352 181.005251,147.100456 C180.195915,146.519143 179.280197,146.135765 178.386084,145.715209 C175.966717,144.577418 173.66148,143.230538 171.35073,141.895109 C167.380334,139.600194 163.665761,136.935582 160.087816,134.076604 C159.685532,133.713451 159.300829,133.328883 158.851463,133.019861 C157.934106,132.265299 157.093779,131.425228 156.203688,130.64018 C156.080321,130.525523 155.974684,130.393319 155.845059,130.284462 C155.21243,129.632957 154.549853,129.010302 153.93257,128.343331 C153.59048,127.934226 153.264034,127.510993 152.853257,127.163901 C152.65584,126.977268 152.476004,126.776656 152.395696,126.617386 C152.697111,127.139215 152.740617,127.845148 152.99644,128.482674 C153.350599,129.638311 153.632645,130.807183 153.67779,132.019925 C153.686134,132.247751 153.777766,132.448957 153.826934,132.664292 C154.216702,136.033945 154.150698,139.382778 153.367436,142.697854 C153.233192,143.331662 153.05574,143.955209 152.89423,144.582474 C152.399272,146.339351 151.784373,148.051764 150.965054,149.686846 C150.63086,150.209864 150.469947,150.836534 150.010449,151.285048 C149.430564,151.972839 149.020681,152.767404 148.585469,153.545908 C148.339182,154.300024 147.92617,154.950637 147.363717,155.508602 C147.284154,155.623259 147.187606,155.715311 147.045168,155.745648 C146.767443,155.931538 146.517579,156.13899 146.465133,156.497831 C146.451724,156.586165 146.401811,156.641783 146.314947,156.66409 C145.654605,157.246444 145.084703,157.911036 144.547281,158.604923 C144.440601,159.157089 143.975442,159.429231 143.609512,159.770078 C143.41433,159.951803 143.207675,160.122375 143.024412,160.317485 C142.680831,160.676177 142.211202,160.894634 141.920216,161.312216 C141.871346,161.358762 141.817113,161.398319 141.759452,161.432969 C141.441945,161.616777 141.180312,161.869735 140.915549,162.118529 C140.619647,162.391266 140.260869,162.583698 139.968542,162.861194 C139.619598,163.058088 139.300006,163.298108 138.979519,163.537236 C138.886845,163.578727 138.779569,163.569655 138.689279,163.620366 C138.521213,163.64996 138.309791,163.624381 138.191489,163.717177 C136.017665,165.421857 133.517394,166.517563 130.939647,167.390796 C129.54089,167.864591 128.131852,168.467616 126.585591,168.415418 C126.201335,168.402332 125.87772,168.742732 125.467986,168.700944 C124.88527,169.085215 124.222246,169.006398 123.592597,168.961041 C122.392002,168.874491 121.182021,169.008331 119.984704,168.710164 C119.464864,168.580637 118.9559,168.406793 118.431291,168.298085 C118.01083,168.115765 117.496502,168.107586 117.221757,167.65238 C115.252055,166.691852 113.514783,165.439999 112.127201,163.719408 C111.462538,162.8951 111.008702,161.942455 110.396485,161.089446 C109.695467,160.514825 109.716922,159.652893 109.514737,158.879891 C109.526657,158.444166 109.375726,158.053353 109.180395,157.674733 C108.900882,157.335671 108.924125,156.924187 108.904159,156.523112 L108.896263,156.497533 C108.882853,156.118468 108.665322,155.808702 108.537932,155.469491 C108.274361,154.766978 108.550149,154.078741 108.562814,153.38411 C108.684542,152.814694 108.47163,152.263123 108.480122,151.693707 C108.512007,149.578584 108.632096,147.471194 108.883747,145.371091 C108.470289,144.801972 108.985659,144.251888 108.920102,143.69541 C108.57086,143.965916 108.586653,144.574592 108.028521,144.657722 C107.475604,145.396818 106.943397,146.149447 106.522637,146.974349 L106.528448,146.970483 C105.986109,147.356389 105.63493,147.893683 105.334558,148.471279 C104.936446,149.210969 104.504661,149.920174 103.693537,150.288533 C101.506452,152.631333 99.0996005,154.728611 96.5464371,156.662752 C96.3160921,157.083903 95.964317,157.333738 95.4891747,157.409581 C94.2701047,158.144513 93.0510347,158.879742 91.8319647,159.614674 C91.6771598,160.050994 91.2996087,160.082967 90.9216105,160.114047 C90.1195751,160.502928 89.3178377,160.891511 88.5158023,161.280243 C87.5741594,161.680574 86.6323674,162.080756 85.6905755,162.48079 C85.3708341,162.954139 84.8170229,163.000834 84.3506713,163.197579 C83.7844936,163.436261 83.1880701,163.597018 82.6072909,163.799117 C82.2537279,163.917194 81.894056,164.01341 81.5297654,164.093715 C81.3746625,164.122267 81.2280522,164.096838 81.0894877,164.022779 C80.5386564,164.192756 79.9878251,164.362734 79.4369938,164.532562 C78.6762297,165.079672 77.8220464,165.237306 76.9060304,165.136182 C76.1984573,165.025838 75.5598684,165.366387 74.8800082,165.454127 C73.2285572,165.667825 71.6057131,166.10697 69.9202915,166.053434 C69.8398347,166.050757 69.7566959,166.133144 69.6746002,166.175824 C68.8810574,166.452576 68.0621857,166.397255 67.2446548,166.35859 C67.0353181,166.309515 66.8270243,166.298957 66.6211144,166.375395 C64.4902003,166.351601 62.3533264,166.418818 60.23016,166.278881 C57.971707,166.130021 55.6980565,166.03886 53.477001,165.500525 C52.714449,165.315677 51.9218002,165.253664 51.1430079,165.135438 C51.037073,165.213512 50.9420148,165.19641 50.8554492,165.103168 C49.9334735,164.680827 48.9124167,164.618815 47.9579603,164.3031 C46.5957069,163.852505 45.2121474,163.46526 43.8376765,163.051099 C43.4392662,163.135864 43.1052214,163.022397 42.8306252,162.725569 C42.733779,162.35037 42.352205,162.424875 42.1103875,162.303377 C40.5730661,161.530078 39.0156304,160.796484 37.4651974,160.049804 C36.7705868,159.461204 35.9923904,158.999157 35.1992947,158.559864 C35.0170748,158.555997 34.9144179,158.459186 34.8777653,158.285491 C34.2792559,157.775708 33.665698,157.282432 33.0852169,156.75302 C31.2513971,155.080462 29.6850218,153.181714 28.6527904,150.9213 C27.5195411,148.439454 27.0312873,145.82704 27.5240109,143.091939 C27.6111724,142.608627 27.674346,142.121299 27.748545,141.635756 L27.748694,141.635905 C28.3685096,139.687785 29.145216,137.812385 30.2823393,136.098188 C30.4958479,135.776079 30.8395773,135.521931 30.8674392,135.09037 C30.8689292,135.057356 30.8704191,135.024342 30.8716111,134.991328 C30.9720331,134.629365 31.2518441,134.380719 31.4477714,134.078984 C31.6663458,133.750629 31.9862362,133.504957 32.1912521,133.165152 C32.6081377,132.591274 33.1039902,132.085358 33.5761526,131.558771 C34.072005,131.148476 34.4441924,130.615643 34.9290193,130.194194 C35.4071415,129.812898 35.7691972,129.305346 36.2765222,128.955725 C37.1652722,128.217224 38.0252664,127.444073 38.9433682,126.740222 C39.5615449,126.355803 40.1076084,125.875614 40.6822788,125.433346 C42.2480581,124.393704 43.7554318,123.266768 45.3258299,122.378069 C43.7770359,122.790594 42.1950162,123.331161 40.5681493,123.720487 C40.0745317,123.907566 39.5451555,123.966456 39.051389,124.151899 C37.7387507,124.380171 36.4788563,124.851586 35.1489346,124.99896 C34.9348301,125.06588 34.7044851,125.060526 34.4947014,125.147076 C34.4245252,125.171167 34.352114,125.185295 34.2788089,125.193325 C33.9492339,125.21355 33.6399221,125.353488 33.3078141,125.360477 C33.1136748,125.371333 32.9409906,125.470524 32.7501291,125.496845 C32.5856396,125.504876 32.421448,125.511717 32.2636632,125.568822 C27.5558956,126.368146 22.8332286,126.795691 18.0610955,126.217055 C15.9437399,125.96023 13.8448595,125.630835 11.8183903,124.942598 C11.5659942,124.840879 11.3115123,124.741243 11.0582222,124.640416 C10.887177,124.589408 10.7197076,124.527395 10.5595389,124.447984 C10.402946,124.384632 10.251866,124.308492 10.0967631,124.241423 C9.85226371,124.129146 9.59539783,124.048842 9.34449171,123.952626 C8.49060633,123.500245 7.58263608,123.143933 6.81203843,122.541949 C6.72219496,122.482018 6.64888985,122.408406 6.61819706,122.301334 C6.51181525,122.107563 6.36192715,121.965692 6.14409773,121.904869 C6.00404324,121.793038 5.86398876,121.680909 5.72393427,121.568781 C4.5929198,121.173209 3.96461154,120.190969 3.19922868,119.379451 C2.74583953,118.898964 2.39808723,118.322856 1.99178023,117.797756 C1.81283827,117.567253 1.75681648,117.277266 1.6139311,117.029066 C1.21939464,116.331461 0.909337848,115.595488 0.613882482,114.852228 C0.474572968,114.262587 0.250783779,113.695848 0.139336168,113.098474 C-0.230467271,112.529504 0.277155741,111.924248 0.0655840718,111.348884 C-0.0509293404,109.894337 0.0420429988,108.444697 0.166304106,106.995653 C0.0648391012,105.321459 0.490366346,103.755974 1.14787746,102.238076 C2.0635954,100.111948 3.0716897,98.0338545 4.37196151,96.1083385 C4.5091851,95.9050499 4.60901117,95.6767779 4.77677857,95.4932679 C5.04392505,95.221126 5.22480392,94.8831048 5.46185359,94.5873177 C6.20548331,93.5319125 7.1147945,92.6155525 7.9503536,91.6370311 C8.19753487,91.3534384 8.47153508,91.0951266 8.72333517,90.8156977 C9.67391774,89.8304843 10.7173237,88.9446102 11.723332,88.0184352 C12.0053779,87.8292742 12.2603069,87.6060583 12.5146399,87.3816528 C13.8187855,86.2902594 15.2468943,85.368397 16.62509,84.3775326 C18.2395905,83.373879 19.8552828,82.3720099 21.5858497,81.5723884 C22.5818755,81.1519811 23.4913357,80.5519303 24.5058367,80.1697419 C24.9382177,80.0112155 25.3685128,79.8468893 25.7783956,79.6340832 C26.5507812,79.3341322 27.3213789,79.0300173 28.0866127,78.7123696 C28.257509,78.6412855 28.4260214,78.5638069 28.6048143,78.5133937 C29.5294719,78.2158221 30.4346113,77.8556429 31.3832569,77.6327244 C32.4792578,77.2193066 33.6230857,76.9700662 34.7460545,76.648552 C35.4458799,76.5002867 36.1431725,76.3407193 36.842253,76.18829 C37.6740872,75.9061844 38.5609003,75.8896774 39.4024192,75.6527801 C42.1552348,75.1128088 44.94217,74.8466153 47.7328301,74.6138818 C48.8178054,74.5231679 49.9023337,74.3659798 50.9937157,74.5108248 C51.927909,74.4968459 52.8638901,74.4834619 53.7101768,74.5023483 C52.3753383,74.0111543 50.8718385,73.7659291 49.4695058,73.1892261 C47.3397836,72.6129692 45.2876874,71.8169168 43.2498947,70.9859171 C41.1194275,70.1172935 39.0119055,69.1957286 36.9800725,68.1125143 C36.6169738,67.8849858 36.2035151,67.7564991 35.8346056,67.5402727 C35.4464759,67.3178003 35.0820363,67.0520529 34.6556151,66.8988801 C32.9628927,66.0159802 31.4789111,64.7989256 29.8052601,63.8856886 C27.4514507,62.2089669 25.337969,60.251478 23.2429624,58.2730207 C22.7585825,57.8155843 22.3874381,57.2556857 21.9213845,56.7807013 C21.8680446,56.734452 21.8221544,56.6821056 21.780436,56.6257439 C21.1904193,55.8633003 20.5998065,55.1013028 20.0452504,54.3123885 C19.7286378,53.8307121 19.4077045,53.3517125 19.1027135,52.8621544 C18.9412038,52.6365591 18.7674767,52.4191429 18.6418746,52.1694564 C18.3571468,51.5191412 18.1197992,50.8454783 17.6854813,50.2693701 C17.2241954,48.9449459 16.803734,47.6093683 16.5364385,46.2300695 C16.5212411,45.911827 16.4859295,45.5970048 16.3835705,45.292295 C16.346322,45.0881142 16.3433421,44.8820001 16.347365,44.6752912 C16.3230789,44.1292227 16.3807397,43.5834517 16.3539207,43.0373832 C16.3515368,42.9545509 16.3516858,42.8715699 16.3534737,42.7885889 C16.3446831,42.4624647 16.2917902,42.1342585 16.3922122,41.8122982 C16.5964832,41.4344224 16.651015,41.0177329 16.6979482,40.5994076 C17.3672298,38.4741721 18.3002311,36.5018121 19.9890796,34.9697866 C20.7440328,34.1738829 21.6758422,33.6025335 22.5516297,32.9593564 C22.7112024,32.8778626 22.8423172,32.7481862 23.0120215,32.6837941 C24.0348663,32.2523822 25.007798,31.7097341 26.0526938,31.3269508 C26.1960262,31.2760914 26.3311638,31.2045612 26.4771781,31.1597991 C27.1537605,30.9267682 27.8732531,30.8742731 28.5547523,30.660426 C29.8860149,30.4391434 31.1949283,30.0181412 32.5723791,30.2105738 C33.5822613,30.0563601 34.5913986,30.2941497 35.6003869,30.2098303 C37.0915201,30.0179925 38.5480868,30.2960829 40.0070373,30.5340213 C40.5313477,30.5878548 40.9965074,30.9541311 41.5559804,30.8281725 C41.6784535,30.818655 41.7983938,30.83308 41.9171421,30.8611865 C42.4405585,31.0512397 42.9994355,31.0600137 43.5387943,31.1694653 C46.3127671,31.8813471 49.0749693,32.6318938 51.7503079,33.6660333 C53.0882753,34.2532948 54.5117652,34.6277503 55.8241055,35.2805936 C56.6248,35.7127491 57.4543993,36.0809586 58.3100727,36.3914682 C59.2895601,36.9314395 60.3359459,37.3363808 61.3204991,37.8662397 C61.8150106,38.2508075 62.3835723,38.5039144 62.9446842,38.7699592 C63.3757242,38.984996 63.7938017,39.2236779 64.2074094,39.469944 C64.8266291,39.8235799 65.4673038,40.1427147 65.9573455,40.4959044 C65.3311232,39.7536855 64.4915413,39.0467112 63.8241965,38.1824002 C63.7583411,38.1038806 63.6932307,38.0246174 63.6330371,37.9414877 C62.899241,37.0499625 62.2196787,36.1145674 61.4443132,35.2562049 C60.8297124,34.2690582 60.1948484,33.2945521 59.5848665,32.3041337 C59.3041615,31.5660788 58.8153118,30.9362858 58.4934844,30.2191991 C57.946229,29.1068374 57.5238306,27.9437651 57.0799771,26.7888719 C56.8243032,25.922479 56.6125825,25.0480556 56.5666923,24.1406183 C56.5455351,23.7228878 56.4120364,23.3256795 56.3113164,22.9225227 C56.2651282,22.7590888 56.2634892,22.592532 56.2722799,22.4250829 C56.2721309,22.3406148 56.2722799,22.2564441 56.2719819,22.171976 C56.219089,21.5804018 56.1906311,20.9882328 56.2359253,20.3948741 C56.4038417,19.3445251 56.4522648,18.2703822 56.8359247,17.2612262 C56.8684054,16.8292195 56.9679335,16.4150581 57.1649037,16.0273673 C57.3670888,15.5213022 57.5840242,15.0207394 57.7893382,14.5157153 C58.0067206,14.036567 58.2521139,13.572736 58.555764,13.1414727 C58.8424287,12.7287984 59.1301364,12.3168677 59.342602,11.8583903 C59.4993438,11.595171 59.7435452,11.4045229 59.9202523,11.1576619 C60.4713815,10.437601 61.0613983,9.75070279 61.6835978,9.09087006 C61.7262101,9.0368878 61.7756762,8.99034111 61.8294631,8.94810706 C62.5581934,8.57380032 63.0342296,7.88853792 63.6965086,7.43243988 C64.3146852,6.95581966 64.9644486,6.52381287 65.6075073,6.08243727 C65.8874673,5.8311149 66.2618895,5.72761173 66.5452764,5.48089942 C66.7735354,5.3144913 67.0254845,5.19314275 67.2872672,5.09082927 C68.3923567,4.42162771 69.6157475,3.99482583 70.7562976,3.39789804 C71.2861207,3.18985071 71.8233936,3.00113587 72.3561966,2.80022669 C72.4861195,2.73345524 72.6206612,2.67798587 72.7581827,2.62920851 C73.3899179,2.40762844 74.0291027,2.20865251 74.6639667,1.99540028 C75.4218999,1.76891273 76.1898156,1.58079273 76.9553475,1.38315521 C77.3199361,1.28902085 77.6802039,1.24604324 78.0495604,1.33675723 C80.497981,0.916052519 82.9425277,0.469025877 85.4264089,0.300684507 C85.8973794,-0.120168918 86.3839942,-0.0600894892 86.8791017,0.252948129 C88.2123012,0.252204572 89.5453517,0.251312303 90.8785512,0.250420034 C91.1522535,-0.0284139487 91.5104354,-0.0130966686 91.8482051,0.0135226824 C94.0524243,0.187961222 96.2599213,0.340985312 98.4294249,0.801544696 C99.1806533,0.929139127 99.9302428,1.06461526 100.673277,1.2390538 C101.088672,1.33660852 101.459668,1.50435505 101.797586,1.75642097 C102.183928,1.91212186 102.575336,2.04834156 102.997138,2.06782276 C104.099099,2.08834494 105.08097,2.56451903 106.104411,2.88335639 C106.394055,2.97377296 106.63632,3.13512489 106.831949,3.36651992 L109.208554,4.33373924 C110.05797,4.37359391 110.717865,4.78998599 111.291045,5.37828852 C111.99102,5.766128 112.691143,6.15381877 113.391118,6.54180696 C113.765689,6.42254037 113.862386,6.87120284 114.157544,6.9147753 C114.364794,6.94689697 114.548504,7.03077023 114.712547,7.1601492 C115.601595,7.75618472 116.454288,8.4021873 117.312345,9.04060558 C117.398464,9.09979274 117.476537,9.16849744 117.552971,9.23898667 C118.0819,9.61820088 118.50117,10.128876 119.052746,10.4805786 C119.109364,10.5193923 119.160618,10.5647493 119.208594,10.613378 C119.566627,11.0120734 119.962802,11.3732935 120.347654,11.745667 C120.555799,11.9593654 120.760219,12.1770789 120.983114,12.3766497 C121.59995,13.0422822 122.174918,13.7431593 122.73007,14.4605434 C122.85895,14.698333 123.05294,14.8849659 123.230392,15.0848341 C124.117205,16.1976419 124.830142,17.4248089 125.576752,18.6302639 C125.649908,18.7516125 125.718445,18.8757865 125.788175,18.9993658 C126.337516,20.0138753 126.819065,21.0611014 127.310448,22.1043123 C127.737316,23.1885675 128.13364,24.28353 128.502103,25.3887535 C128.874737,26.7942255 129.358074,28.1759037 129.398898,29.6420499 C129.376847,28.4745163 129.82383,27.4024554 130.099618,26.2961909 C130.288691,25.621487 130.550474,24.9710231 130.766516,24.3050932 C130.782756,24.2334142 130.808383,24.1648582 130.838778,24.0980868 C131.448909,22.6432426 132.098523,21.2065412 132.847815,19.8166839 C133.259336,19.0778854 133.481338,18.2349889 134.06912,17.5927041 C134.390053,17.1488004 134.684167,16.6864565 134.988562,16.231102 C136.194223,14.4484977 137.601919,12.8358707 139.130897,11.3254084 C139.533181,10.9601731 139.945895,10.6053475 140.306014,10.1957962 C140.349073,10.1418139 140.398241,10.0940775 140.450985,10.0499102 C141.455802,9.23110496 142.426499,8.36783495 143.522946,7.66591687 C144.271493,7.17725102 144.899801,6.47845588 145.848149,6.33941067 C146.090562,6.26788046 146.297366,6.13969118 146.466325,5.95157119 C146.485248,5.72627333 146.643926,5.6090887 146.820633,5.51644146 C147.950605,4.92352888 149.079832,4.32868305 150.247499,3.81086975 C150.476652,3.70929983 150.715191,3.66721448 150.965203,3.69323899 C152.539028,3.04188281 154.21104,2.6550843 155.756408,1.92669558 C156.18417,1.67403482 156.678383,1.71032041 157.141159,1.6102376 C158.254443,1.40174414 159.371601,1.21213703 160.480118,0.981188137 C162.666309,0.526131077 164.884086,0.376973485 167.105738,0.255327512 C167.945618,0.209375672 168.786094,0.176956574 169.626123,0.138440307 C170.93146,0.317637613 172.239182,0.466051648 173.561356,0.392142053 C174.635901,0.626362599 175.726836,0.74176269 176.819261,0.843927462 C177.822737,1.09004492 178.826063,1.33809564 179.830284,1.58198243 C182.24816,2.1695414 184.573512,3.0054485 186.812298,4.09565219 C189.71962,5.51153398 192.318525,7.32730088 194.446757,9.78089122 C194.605585,9.96395502 194.809707,10.1083538 194.992821,10.2710442 C195.332676,10.628844 195.410004,11.1854709 195.883657,11.4417008" id="Fill-1" fill="#39E4C6" mask="url(#mask-2)"></path>
            </g>
        </g>
    </g>
</svg>