<?xml version="1.0" encoding="UTF-8"?>
<svg width="540px" height="536px" viewBox="0 0 540 536" version="1.1" xmlns="http://www.w3.org/2000/svg" xmlns:xlink="http://www.w3.org/1999/xlink">
    <title>Group 76</title>
    <defs>
        <polygon id="path-1" points="0 0 466 0 466 462 0 462"></polygon>
    </defs>
    <g id="Page-1" stroke="none" stroke-width="1" fill="none" fill-rule="evenodd">
        <g id="Artboard" transform="translate(-262.000000, -1442.000000)">
            <g id="Group-76" transform="translate(532.000000, 1710.000000) rotate(10.000000) translate(-532.000000, -1710.000000) translate(299.000000, 1479.000000)">
                <g id="Group-3" transform="translate(0.000000, 0.000000)">
                    <mask id="mask-2" fill="white">
                        <use xlink:href="#path-1"></use>
                    </mask>
                    <g id="Clip-2"></g>
                    <path d="M51.8956647,388.689268 C50.5437289,388.955239 49.4466517,389.083189 48.3768384,387.791246 C45.3582461,384.145255 42.1013907,380.709552 39.2280085,376.923763 C37.3444259,374.440579 36.8382649,372.523694 39.3637355,370.203409 C40.8881454,368.803064 89.7255665,307.721598 89.7255665,307.721598 C90.3028508,307.001285 91.2748695,306.4107 90.9749662,305.160815 C86.1611027,304.024071 81.3383489,302.886143 76.515595,301.747029 C52.7218806,296.124324 28.9275735,290.501618 5.13385913,284.878913 C3.54484559,282.858364 4.06641662,280.28988 3.39193045,278.014615 C2.04710699,273.478303 1.10709376,268.821741 -5.92694343e-05,264.214345 C27.7368506,253.858662 55.4619065,243.469808 83.2302292,233.200018 C85.9169126,232.206033 86.4236663,231.581683 84.419174,229.158328 C71.5784511,213.63369 58.8894579,197.982878 46.1370464,182.384787 C45.4619676,181.558442 44.9469162,180.471456 43.6418033,180.419921 C40.3802063,176.209408 37.1440952,171.978162 33.8504927,167.791936 C29.0170704,161.647359 23.4807125,156.086259 19.2879927,149.386638 C17.9004953,147.168833 15.7685737,145.254317 14.125625,143.070276 C13.2602913,141.921685 12.9437925,140.864318 13.6212421,139.439094 C17.9396131,130.363507 22.4903203,121.420609 27.7836734,112.859785 C29.0887864,110.74979 30.3429276,109.860654 32.8334292,111.073812 C41.4778762,115.284918 50.111062,119.533342 58.8947922,123.439381 C70.7949092,128.729771 82.2428004,135.00289 94.4066664,139.712173 C94.8559287,140.569321 95.7301529,140.809228 96.5208071,141.181824 C106.175798,145.732946 115.867536,150.208245 125.456738,154.893241 C128.228769,156.247381 128.439768,155.507521 128.184317,152.876838 C126.619011,136.78057 125.273002,120.661793 123.6425,104.572041 C123.078848,99.007979 123.03973,93.3722416 121.732839,87.8893336 C121.490427,78.7746508 120.151531,69.7636315 119.287975,60.7070002 C118.715432,54.7075521 118.195639,48.6838172 117.810388,42.6648211 C117.585757,39.1444104 117.32912,35.6577643 116.619072,32.2113989 C116.124173,29.8111458 116.96165,28.1726709 119.156397,27.1135266 C121.427009,26.0188406 123.659096,24.8430009 125.909556,23.7050724 C134.165788,36.055832 142.461731,48.3781581 150.665213,60.7614975 C162.409452,78.4915015 174.084345,96.2677098 185.796578,114.018446 C186.336522,114.837092 186.951739,115.605978 187.661194,116.574491 C189.311848,114.5184 189.849422,112.143619 190.717126,109.964317 C204.859406,74.448627 218.993981,38.9305675 232.987494,3.35623354 C234.140877,0.423446476 235.504667,-0.283834428 238.539855,0.0929081641 C249.697918,1.47903657 260.890951,2.5926782 272.080428,3.71224345 C274.017353,3.90594601 274.84831,4.35732628 274.915877,6.59645678 C275.471825,24.9887221 276.206173,43.3750638 276.865249,61.7643674 C277.449646,78.0596692 278.005593,94.3561558 278.581692,110.65205 C278.595917,111.067889 278.695489,111.480765 278.779652,112.063058 C280.264351,111.830852 280.800147,110.631317 281.531532,109.79194 C303.326681,84.7782454 325.125979,59.7675131 346.815035,34.6631876 C348.627495,32.5650394 349.857928,32.0787097 352.159953,33.8167015 C354.877457,35.8686454 357.818999,37.6540262 360.794324,39.3221192 C362.530919,40.2947785 362.721766,41.197539 361.953634,42.9805504 C350.537156,69.4875905 339.190615,96.0254335 327.832221,122.557945 C327.156549,124.135999 326.523552,125.731231 325.626805,127.911718 C332.995774,126.78386 339.721077,125.779805 346.438674,124.721846 C373.436494,120.469275 400.437278,116.233882 427.419688,111.882387 C429.893594,111.483727 431.269238,112.021592 432.393579,114.270201 C434.067348,117.616457 435.937891,120.879782 437.951866,124.034113 C439.168075,125.938558 438.818385,126.983486 437.121502,128.370207 C416.721555,145.03455 396.383841,161.774717 376.032496,178.498889 C369.065966,184.224073 362.107735,189.960512 355.136464,195.699321 C355.799096,196.91011 356.858241,196.945059 357.714092,197.295738 C392.991852,211.761232 428.226345,226.329204 463.185235,241.553515 C465.563718,242.589557 466.110775,243.859582 465.983345,246.26102 C465.572608,253.990167 465.664476,254.013269 458.095176,253.959956 C422.14945,253.709387 386.202538,253.440454 350.256219,253.21121 C347.998053,253.196993 345.687731,252.557242 343.116623,253.573144 C348.233946,259.340978 353.190056,264.935842 358.157427,270.521229 C382.696158,298.112885 407.221257,325.716981 431.819258,353.256509 C433.341297,354.959551 433.571855,356.067269 432.202731,358.009626 C428.076986,363.863945 424.1492,369.860431 420.243937,375.866988 C419.19309,377.484138 418.297529,378.019633 416.275256,377.261409 C382.123023,364.448607 347.934635,351.732952 313.756916,338.988272 C309.710591,337.478932 309.731928,337.454645 310.28669,341.619546 C315.083958,377.653553 319.860482,413.68993 324.7105,449.716237 C324.982547,451.736193 324.499501,452.647839 322.535904,453.333203 C314.944082,455.984617 307.388415,458.747989 299.887275,461.644642 C297.954499,462.390426 296.984258,461.955632 295.782274,460.405419 C274.502769,432.971924 253.131989,405.608328 231.903456,378.135736 C230.110556,375.815452 229.156911,375.829669 227.266808,377.822377 C202.772529,403.654716 178.181641,429.395831 153.753151,455.289776 C151.24961,457.942376 149.3601,458.608191 145.950923,456.933582 C139.23451,453.634715 132.295838,450.766496 125.344718,447.980022 C122.985795,447.034611 122.541274,446.122373 123.294589,443.674139 C130.452558,420.41443 137.465318,397.109702 144.513639,373.816229 C144.820062,372.803289 145.068401,371.771985 145.483287,370.23125" id="Fill-1" fill="#FABC2E" mask="url(#mask-2)"></path>
                </g>
                <path d="M119.876915,173.528661 C121.043829,173.528661 121.586526,173.418125 121.993548,173.335962 C122.373203,173.226018 122.590398,173.143264 123.106309,173.143264 C124.164334,173.143264 126.362489,175.264722 126.362489,178.239728 C126.362489,179.616992 125.657332,180.526103 124.273223,180.526103 C121.912027,180.526103 121.939395,177.275644 120.555286,177.275644 C119.496678,177.275644 119.605567,178.762261 119.605567,178.983332 L119.605567,187.440201 C119.605567,190.718442 122.101854,189.14848 122.101854,191.076648 C122.101854,191.930197 121.586526,193.143264 116.511847,193.143264 C115.127737,193.143264 110.053058,193.197515 110.053058,191.076648 C110.053058,189.617222 111.735884,190.195318 112.27858,189.14848 C112.549929,188.569793 112.658235,186.916486 112.685603,186.228446 L112.902216,180.140115 C113.011104,177.247271 112.44104,177.275644 112.061385,177.275644 C110.839736,177.275644 110.242886,180.526103 108.045314,180.526103 C106.986706,180.526103 106.362489,179.533646 106.362489,178.542372 C106.362489,176.201024 108.31608,173.143264 109.863231,173.143264 C110.053058,173.143264 110.351774,173.226018 110.867103,173.335962 C111.383014,173.418125 112.115538,173.528661 113.200932,173.528661 L119.876915,173.528661 Z" id="Fill-4" fill="#000000"></path>
                <path d="M147.416263,188.274148 C147.416263,189.103969 147.524709,189.519473 148.254254,189.934384 C148.794743,190.238889 149.172853,190.404497 149.172853,191.096015 C149.172853,191.759635 149.1195,193.143264 143.794637,193.143264 C142.605793,193.143264 139.145966,193.115366 139.145966,191.261623 C139.0381,189.131867 141.038258,191.483621 141.038258,185.867191 C141.038258,184.374343 140.713501,184.428953 139.362278,184.428953 C135.578853,184.428953 135.929707,184.539952 135.929707,187.029416 C135.929707,190.819408 137.605688,189.298069 137.605688,191.096015 C137.605688,193.032265 133.659884,193.143264 132.362594,193.143264 C131.119237,193.143264 127.362489,193.032265 127.362489,191.151811 C127.362489,190.570105 127.767856,190.210991 128.227155,189.989586 C129.200268,189.519473 129.551702,189.602574 129.551702,183.820536 C129.551702,176.462549 129.443836,177.070966 128.443467,176.517158 C128.0381,176.296347 127.551544,176.047638 127.551544,175.494424 C127.551544,173.364075 132.065093,173.143264 133.578695,173.143264 C134.713606,173.143264 137.848676,173.280974 137.848676,174.94121 C137.848676,175.798336 137.389376,176.102841 136.767697,176.48926 C136.092086,176.87746 135.929707,177.20927 135.929707,179.671429 C135.929707,181.220073 136.632575,181.026566 137.929865,181.026566 L139.308345,181.026566 C141.092191,181.026566 141.038258,180.749959 141.038258,179.892833 C141.038258,176.87746 140.578379,176.683953 140.227524,176.48926 C139.713712,176.185942 139.227155,175.936639 139.227155,175.217223 C139.227155,174.691907 139.11929,173.143264 144.497505,173.143264 C145.767539,173.143264 149.362489,173.170568 149.362489,175.106818 C149.362489,175.715829 149.064988,176.130739 148.524498,176.406753 C147.713764,176.766461 147.416263,176.683953 147.416263,181.082363 L147.416263,188.274148 Z" id="Fill-6" fill="#000000"></path>
                <path d="M161.493241,173.689651 C165.104606,173.689651 165.616384,173.143264 166.047782,173.143264 C167.583696,173.143264 168.230793,175.821265 168.230793,177.023668 C168.230793,177.924738 167.880354,178.989959 166.829618,178.989959 C164.700387,178.989959 166.424821,176.367066 161.304143,176.367066 C158.312696,176.367066 158.609354,176.914039 158.609354,180.055766 C158.609354,181.640992 158.690313,181.694927 160.334366,181.694927 C162.382637,181.694927 160.846145,178.662244 162.759676,178.662244 C164.323348,178.662244 164.430908,181.749449 164.430908,182.815255 C164.430908,183.935584 164.24181,187.213907 162.624937,187.213907 C160.954283,187.213907 162.624937,184.345374 159.902968,184.345374 C158.771272,184.345374 158.798452,185.383041 158.798452,186.257729 C158.798452,190.246591 159.067931,190.055472 161.897459,190.055472 C167.422356,190.055472 165.859262,186.203208 168.068874,186.203208 C168.931669,186.203208 169.362489,187.186353 169.362489,187.951999 C169.362489,189.809833 167.906955,193.143264 166.829618,193.143264 C166.64052,193.143264 166.209122,193.060602 165.643564,192.978527 C165.050247,192.924592 164.296169,192.842516 163.379594,192.842516 L152.3032,192.842516 C150.524407,192.842516 150.497228,192.022349 150.497228,191.667666 C150.497228,190.165102 152.329801,191.366333 152.518898,188.470832 C152.842157,183.49824 152.868758,183.990105 152.599858,179.045066 C152.41076,174.864501 150.362489,177.023668 150.362489,175.083173 C150.362489,173.416457 152.626459,173.689651 153.731554,173.689651 L161.493241,173.689651 Z" id="Fill-8" fill="#000000"></path>
                <path d="M191.54498,189.137377 C192.507376,189.137377 193.222536,188.4245 193.222536,187.436715 C193.222536,185.159746 190.335346,187.381969 190.335346,184.857171 C190.335346,182.855111 194.487636,182.717951 195.890222,182.717951 C201.059785,182.717951 201.362489,184.171373 201.362489,184.967841 C201.362489,185.680718 200.757081,186.175199 200.097388,186.284103 C199.382229,186.366516 199.327353,186.503676 199.134992,187.217142 C198.062253,191.22244 194.184933,193.143264 190.279879,193.143264 C184.450623,193.143264 179.362489,189.110298 179.362489,183.047016 C179.362489,177.258643 184.285405,173.143264 190.170127,173.143264 C192.589986,173.143264 193.909962,173.884397 194.625121,173.884397 C195.120186,173.884397 195.834756,173.472918 196.32982,173.472918 C198.03511,173.472918 199.052382,176.271446 199.052382,177.670122 C199.052382,179.01464 198.364956,180.386236 196.879761,180.386236 C194.15779,180.386236 194.15779,176.572256 190.417365,176.572256 C188.025239,176.572256 186.485169,178.548415 186.485169,181.455846 C186.485169,187.107649 189.785405,189.137377 191.54498,189.137377" id="Fill-10" fill="#000000"></path>
                <path d="M219.323863,178.211693 C219.323863,175.264393 216.952434,176.393423 216.952434,174.795638 C216.952434,173.087906 220.151024,173.143471 221.281713,173.143471 C222.329568,173.143471 225.362489,173.143471 225.362489,174.740664 C225.362489,176.283475 223.294588,175.346558 223.294588,177.854068 L223.294588,185.292071 C223.294588,186.531049 223.322397,193.143264 213.781653,193.143264 C202.917334,193.143264 204.130266,184.768343 204.130266,184.43791 L204.130266,178.074554 C204.240909,176.338449 202.365302,176.338449 202.365302,175.071689 C202.365302,174.685691 202.062365,173.143471 207.743028,173.143471 C212.237384,173.143471 213.147378,173.969259 213.147378,175.043907 C213.147378,177.027098 211.134503,175.181636 210.996643,178.542718 L210.996643,183.61094 C210.996643,186.889856 212.237384,188.983586 215.160253,188.983586 C219.517341,188.983586 219.323863,185.374236 219.323863,185.070994 L219.323863,178.211693 Z" id="Fill-12" fill="#000000"></path>
                <path d="M228.016177,192.757853 C227.141006,192.757853 225.74578,192.812827 225.74578,191.545463 C225.74578,189.837713 227.879413,191.269409 227.961589,188.074398 C228.016177,186.063403 228.016177,184.300088 228.016177,182.674504 C228.016177,181.021729 227.879413,179.478902 227.824825,177.936667 C227.770237,175.622427 225.362489,176.834817 225.362489,175.264207 C225.362489,173.253212 229.657343,173.143264 230.997981,173.143264 C236.469121,173.143264 236.742062,174.0796 236.742062,175.016527 C236.742062,176.614328 234.581428,175.401938 234.581428,177.992232 L234.581428,186.75206 C234.581428,188.735272 234.909544,189.699982 236.851825,189.699982 C241.502383,189.699982 239.915805,185.870698 241.666147,185.870698 C242.897609,185.870698 243.362489,187.193036 243.362489,188.239321 C243.362489,190.388638 241.830499,193.143264 240.572037,193.143264 C240.079569,193.143264 239.696278,193.033315 239.204985,192.949967 C238.68493,192.84061 238.0827,192.757853 237.152354,192.757853 L228.016177,192.757853 Z" id="Fill-14" fill="#000000"></path>
                <path d="M246.792673,181.508694 C246.820524,180.373411 246.847783,178.599754 246.709711,177.51975 C246.378457,175.137439 244.58293,176.16276 244.58293,174.638746 C244.58293,173.586083 245.798318,173.143264 246.682452,173.143264 C247.400071,173.143264 252.371845,173.420249 254.663365,173.420249 C255.215653,173.420249 260.766974,173.143264 261.153338,173.143264 C262.230654,173.143264 263.362489,175.415018 263.362489,177.298637 C263.362489,178.240149 262.920421,179.209597 261.871549,179.209597 C259.965801,179.209597 260.960156,176.35653 255.65772,176.35653 C253.973005,176.35653 253.254794,176.218038 253.254794,180.234324 C253.254794,180.733016 253.282646,181.203772 254.884399,181.203772 C257.010588,181.203772 255.65772,178.655627 257.590727,178.655627 C259.165221,178.655627 259.275441,181.674529 259.275441,182.755722 C259.275441,184.057434 259.137369,187.409193 257.259473,187.409193 C255.492389,187.409193 257.314583,184.279141 254.359962,184.279141 C253.144574,184.279141 253.310497,184.500254 253.282646,187.353915 C253.172425,191.453416 255.961715,189.181661 255.961715,191.286987 C255.961715,191.923578 256.210008,193.143264 249.499001,193.143264 C245.080107,193.143264 244.362489,192.506079 244.362489,191.314923 C244.362489,189.764162 245.853428,190.483967 246.433567,189.015827 C246.709711,188.240149 246.792673,186.27391 246.792673,185.359146 L246.792673,181.508694 Z" id="Fill-16" fill="#000000"></path>
                <path d="M287.222343,185.176538 C287.085867,184.87145 286.867389,184.014353 286.431019,184.014353 C285.912061,184.014353 285.721113,184.733744 285.011206,186.503732 L283.345971,190.680595 C282.77254,192.119377 282.499589,193.143264 280.725994,193.143264 C279.196648,193.143264 278.787808,192.174578 278.296379,190.901991 L273.218672,177.763008 C272.454878,175.77103 271.362489,176.794916 271.362489,175.107433 C271.362489,173.198552 275.047912,173.143945 276.303134,173.143945 C280.289038,173.143945 280.971415,173.779645 280.971415,174.913933 C280.971415,175.743132 280.343511,175.854128 280.343511,176.711818 C280.343511,177.513714 281.189893,179.532996 281.298839,179.865388 C281.435315,180.308181 282.036275,182.244365 282.663594,182.244365 C283.3735,182.244365 283.946346,180.252387 284.083407,179.83749 C284.165409,179.671888 284.43836,178.952497 284.43836,178.758403 C284.43836,178.510296 283.864929,176.794916 283.046076,176.324225 C282.499589,176.048221 282.036275,175.660628 282.036275,174.969134 C282.036275,174.802344 281.653792,173.143945 287.358818,173.143945 C292.654417,173.143945 292.545471,174.388041 292.545471,174.858139 C292.545471,175.77103 291.317192,176.020324 291.317192,176.711818 C291.317192,177.458513 292.245577,179.173893 292.517942,179.78229 C292.70889,180.225083 293.309851,181.93987 293.965284,181.93987 C294.893083,181.93987 296.066889,177.23771 296.066889,176.850117 C296.066889,175.660628 294.292123,176.269024 294.292123,174.747737 C294.292123,173.060254 297.076691,173.143945 298.196024,173.143945 C299.315357,173.143945 301.362489,173.28165 301.362489,174.830241 C301.362489,176.18652 300.216212,175.82623 299.478776,177.763008 L294.784137,190.210497 C294.210706,191.704481 293.582802,193.143264 292.026513,193.143264 C290.662344,193.143264 290.224803,192.395975 289.73396,191.234384 L287.222343,185.176538 Z" id="Fill-18" fill="#000000"></path>
                <path d="M309.795942,184.912572 C310.072697,184.912572 310.900589,184.967907 310.900589,184.556426 C310.900589,184.144356 310.099957,182.717416 309.878909,182.333602 C309.630601,181.894453 309.160651,180.879584 308.553214,180.879584 C307.890663,180.879584 307.420714,182.525509 307.310486,182.827497 C307.200258,183.129486 306.730309,184.199102 306.730309,184.528758 C306.730309,184.994986 307.420714,184.912572 307.724729,184.912572 L309.795942,184.912572 Z M303.995952,182.937579 C304.852291,181.044412 305.984791,178.63027 305.984791,176.462782 C305.984791,174.570203 306.86839,173.143264 309.326586,173.143264 C311.729075,173.143264 313.248557,175.585073 314.325944,177.395237 C314.7953,178.191121 318.96558,186.586165 319.959407,188.835478 C320.870859,190.920552 322.362489,189.65903 322.362489,191.222541 C322.362489,193.225201 318.440517,193.142787 317.059708,193.142787 C313.110476,193.142787 310.735248,193.115708 310.735248,191.414448 C310.735248,190.09759 312.420072,190.590896 312.420072,189.631951 C312.420072,188.396329 311.729075,188.286836 307.282633,188.286836 C305.846117,188.286836 304.990371,188.341583 304.990371,189.686108 C304.990371,190.755724 306.758162,190.042843 306.758162,191.469783 C306.758162,193.115708 303.775497,193.142787 302.67085,193.142787 C298.721025,193.142787 298.362489,192.402238 298.362489,191.523941 C298.362489,190.23475 299.853525,190.618564 300.65475,189.631951 C301.262187,188.890225 301.842364,187.573955 302.256014,186.695658 L303.995952,182.937579 Z" id="Fill-20" fill="#000000"></path>
                <path d="M330.885781,181.258541 C330.830559,181.973016 330.692205,182.577254 331.605458,182.577254 C333.404054,182.577254 333.985377,181.588661 333.985377,179.885593 C333.985377,178.539173 333.653447,177.165635 332.048427,177.165635 C331.024135,177.165635 331.052043,177.796991 330.996821,178.64823 L330.885781,181.258541 Z M324.4657,180.050064 C324.4657,175.792098 322.362489,177.54999 322.362489,175.846332 C322.362489,174.335441 324.520923,174.143264 325.628346,174.143264 C326.209074,174.143264 326.762489,174.198087 327.343811,174.225204 C327.897225,174.280617 328.478548,174.335441 329.031962,174.335441 C329.917306,174.335441 330.802651,174.280617 331.715903,174.225204 C332.601841,174.198087 333.514499,174.143264 334.400437,174.143264 C337.527347,174.143264 341.152448,175.516801 341.152448,179.170528 C341.152448,180.819362 340.350235,182.412784 338.800437,183.154376 C338.551638,183.29114 338.357468,183.37426 338.357468,183.703791 C338.357468,184.116441 338.717306,184.225499 339.04983,184.363442 C340.98678,185.077328 341.844216,186.341218 342.231368,189.308177 C342.563892,191.863074 344.362489,190.324476 344.362489,192.001017 C344.362489,193.044434 343.089992,194.143264 339.962489,194.143264 C335.535174,194.143264 334.981166,191.616073 334.12373,187.989463 C333.819115,186.725573 333.348831,185.489389 331.826348,185.489389 C331.217711,185.489389 330.996821,185.57133 330.996821,187.302694 C330.996821,188.0997 331.052043,189.198529 331.189803,189.967239 C331.411881,191.231718 332.822732,190.846774 332.822732,192.165488 C332.822732,193.154671 332.130964,193.896263 327.647833,193.896263 C326.320113,193.896263 322.389803,193.896263 322.389803,191.89078 C322.389803,190.46242 324.4657,191.451013 324.4657,187.879226 L324.4657,180.050064 Z" id="Fill-22" fill="#000000"></path>
                <path d="M162.200785,218.712926 C162.200785,220.286117 162.439197,220.934291 164.049354,220.934291 C167.805805,220.934291 168.46173,216.953768 168.46173,213.868171 C168.46173,206.647983 165.83803,205.506306 163.542873,205.506306 C162.290335,205.506306 162.200785,206.031104 162.200785,207.203474 L162.200785,218.712926 Z M155.045502,207.419532 C155.105396,204.241253 152.869551,205.784352 152.869551,203.778444 C152.869551,202.35872 154.598333,202.143264 155.642115,202.143264 L165.361204,202.143264 C173.649238,202.143264 176.362489,207.449624 176.362489,213.004541 C176.362489,218.743619 173.112519,224.143264 165.569379,224.143264 C164.287767,224.143264 163.21491,224.11257 162.290335,224.050581 C161.36576,224.019888 160.561553,223.989194 159.726528,223.989194 C158.891503,223.989194 158.026821,224.019888 157.192377,224.050581 C156.357352,224.11257 155.522908,224.143264 154.658227,224.143264 C153.644683,224.143264 152.362489,223.618465 152.362489,222.384708 C152.362489,220.162741 154.717539,222.63146 154.807089,218.126139 L155.045502,207.419532 Z" id="Fill-24" fill="#000000"></path>
                <path d="M179.809872,211.637544 C179.809872,207.772648 179.514875,206.890107 179.190551,206.463972 C178.512575,205.582025 177.362489,205.491219 177.362489,204.33448 C177.362489,202.143264 183.37744,202.143264 183.966859,202.143264 C185.735692,202.143264 189.362489,202.204395 189.362489,204.273349 C189.362489,205.368364 188.24173,205.307826 187.563754,206.09956 C187.003662,206.769033 186.973759,209.507459 186.973759,211.637544 L186.973759,214.649576 C186.973759,220.065892 187.327986,219.944818 187.917405,220.309229 C188.654611,220.766227 189.362489,220.918164 189.362489,221.861835 C189.362489,222.774644 189.096819,224.143264 182.640234,224.143264 C181.402167,224.143264 177.686813,224.113588 177.686813,222.166302 C177.686813,221.192363 178.689113,221.040426 179.161224,220.461759 C179.514875,220.035624 179.809872,218.91034 179.809872,214.649576 L179.809872,211.637544 Z" id="Fill-26" fill="#000000"></path>
                <path d="M201.200785,218.712926 C201.200785,220.286117 201.439779,220.934291 203.049354,220.934291 C206.805805,220.934291 207.46173,216.953768 207.46173,213.868171 C207.46173,206.647983 204.83803,205.506306 202.542873,205.506306 C201.290335,205.506306 201.200785,206.031104 201.200785,207.203474 L201.200785,218.712926 Z M194.045502,207.419532 C194.105396,204.241253 191.869551,205.784352 191.869551,203.778444 C191.869551,202.35872 193.598333,202.143264 194.642115,202.143264 L204.361204,202.143264 C212.649238,202.143264 215.362489,207.449624 215.362489,213.004541 C215.362489,218.743619 212.112519,224.143264 204.569379,224.143264 C203.287767,224.143264 202.21491,224.11257 201.290335,224.050581 C200.36576,224.019888 199.561553,223.989194 198.726528,223.989194 C197.891503,223.989194 197.026821,224.019888 196.192377,224.050581 C195.357352,224.11257 194.522908,224.143264 193.658227,224.143264 C192.644683,224.143264 191.362489,223.618465 191.362489,222.384708 C191.362489,220.162741 193.717539,222.63146 193.807089,218.126139 L194.045502,207.419532 Z" id="Fill-28" fill="#000000"></path>
                <path d="M241.843816,209.813509 C242.213339,210.11735 243.198734,210.999792 243.753319,210.999792 C244.523609,210.999792 244.554252,209.752385 244.554252,209.234907 C244.554252,208.474712 244.523609,207.166181 244.276659,206.465924 C243.84585,205.188251 242.213339,205.645199 242.213339,204.001968 C242.213339,202.054897 245.355787,202.145693 246.649418,202.145693 C248.004336,202.145693 251.362489,201.993773 251.362489,204.092764 C251.362489,205.827384 249.729978,205.188251 249.206036,206.588172 C248.80587,207.683659 248.80587,209.570199 248.80587,210.725624 L248.80587,218.606484 C248.80587,219.975547 248.990932,224.143264 246.92641,224.143264 C246.310538,224.143264 245.786597,223.778893 245.324543,223.383069 L235.805269,214.955059 C235.373859,214.559829 234.573526,213.8299 233.92641,213.8299 C232.971659,213.8299 232.941015,215.807236 232.941015,216.446369 C232.941015,217.297953 232.971659,218.424299 233.15672,219.214759 C233.618174,221.16183 235.251285,220.432494 235.251285,221.922618 C235.251285,223.961672 232.078194,224.143264 230.630144,224.143264 C229.213339,224.143264 226.040248,223.961672 226.040248,221.983742 C226.040248,220.37137 227.827177,221.009909 228.134813,219.062838 C228.350518,217.7549 228.412405,215.837501 228.412405,214.468439 C228.412405,212.277465 228.412405,210.056819 228.073526,207.866438 C227.580228,204.82388 225.362489,206.010163 225.362489,204.184747 C225.362489,202.024631 229.520974,202.145693 230.907136,202.145693 C232.817841,202.145693 233.15672,202.267941 234.542882,203.485083 L241.843816,209.813509 Z" id="Fill-30" fill="#000000"></path>
                <path d="M263.561312,206.640267 C261.886495,206.640267 261.048795,208.390214 261.048795,209.869398 C261.048795,212.434574 262.843783,219.647437 266.073829,219.647437 C267.898568,219.647437 268.675599,218.047587 268.675599,216.417718 C268.675599,213.67125 267.060868,206.640267 263.561312,206.640267 M253.362489,213.06851 C253.362489,206.670286 258.417273,202.143264 264.93745,202.143264 C273.191946,202.143264 276.362489,209.476205 276.362489,213.36988 C276.362489,219.858161 270.680012,224.143264 264.578686,224.143264 C258.267351,224.143264 253.362489,219.496164 253.362489,213.06851" id="Fill-32" fill="#000000"></path>
                <path d="M292.228471,202.567633 C293.51228,202.567633 294.109061,202.446469 294.557376,202.35604 C294.974832,202.234285 295.213545,202.143264 295.780633,202.143264 C296.945085,202.143264 299.362489,204.476707 299.362489,207.74991 C299.362489,209.264165 298.586963,210.264212 297.064442,210.264212 C294.467131,210.264212 294.496824,206.688985 292.974885,206.688985 C291.810432,206.688985 291.929789,208.324996 291.929789,208.567324 L291.929789,217.870952 C291.929789,221.476913 294.67615,219.749291 294.67615,221.870549 C294.67615,222.810309 294.109061,224.143264 288.526676,224.143264 C287.004155,224.143264 281.422352,224.203992 281.422352,221.870549 C281.422352,220.26409 283.273249,220.901236 283.870031,219.749291 C284.168713,219.113327 284.28807,217.294684 284.317763,216.537556 L284.557058,209.840433 C284.675832,206.658842 284.049357,206.688985 283.631318,206.688985 C282.288122,206.688985 281.631371,210.264212 279.213386,210.264212 C278.049516,210.264212 277.362489,209.173735 277.362489,208.082668 C277.362489,205.507488 279.512068,202.143264 281.213915,202.143264 C281.422352,202.143264 281.750728,202.234285 282.317816,202.35604 C282.885487,202.446469 283.690705,202.567633 284.884851,202.567633 L292.228471,202.567633 Z" id="Fill-34" fill="#000000"></path>
                <path d="M171.039748,231.857013 C173.256932,231.857013 174.288112,231.653169 175.061645,231.500138 C175.783172,231.296885 176.195644,231.143264 177.175413,231.143264 C179.186362,231.143264 183.362489,235.067704 183.362489,240.571492 C183.362489,243.119837 182.022255,244.801402 179.392598,244.801402 C174.906819,244.801402 174.958229,238.7883 172.328572,238.7883 C170.317623,238.7883 170.524457,241.539898 170.524457,241.946996 L170.524457,257.593352 C170.524457,263.657268 175.267283,260.753229 175.267283,264.320204 C175.267283,265.899552 174.288112,268.143264 164.646437,268.143264 C162.016182,268.143264 152.375105,268.244644 152.375105,264.320204 C152.375105,261.619418 155.572059,262.689452 156.602641,260.753229 C157.117932,259.683196 157.324765,256.624945 157.376175,255.351068 L157.788646,244.087653 C157.994882,238.736896 156.912294,238.7883 156.190169,238.7883 C153.869568,238.7883 152.735569,244.801402 148.559443,244.801402 C146.548494,244.801402 145.362489,242.966806 145.362489,241.13221 C145.362489,236.800673 149.074734,231.143264 152.014043,231.143264 C152.375105,231.143264 152.942403,231.296885 153.921575,231.500138 C154.900747,231.653169 156.293586,231.857013 158.355944,231.857013 L171.039748,231.857013 Z" id="Fill-36" fill="#000000"></path>
                <path d="M200.324625,252.915557 C200.830642,252.915557 202.349868,253.01794 202.349868,252.256539 C202.349868,251.495138 200.881714,248.856714 200.476078,248.145917 C200.020546,247.333325 199.159964,245.455713 198.046375,245.455713 C196.830642,245.455713 195.970061,248.500727 195.767537,249.059127 C195.565013,249.617527 194.703845,251.596345 194.703845,252.205936 C194.703845,253.069131 195.970061,252.915557 196.52715,252.915557 L200.324625,252.915557 Z M189.691811,249.262128 C191.26152,245.760509 193.337246,241.294488 193.337246,237.285072 C193.337246,233.782864 194.95744,231.143264 199.463457,231.143264 C203.868506,231.143264 206.653947,235.661064 208.628118,239.010286 C209.489286,240.481896 217.134722,256.011762 218.95744,260.173576 C220.628118,264.031182 223.362489,261.696966 223.362489,264.588994 C223.362489,268.294202 216.172585,268.142393 213.640739,268.142393 C206.400352,268.142393 202.046375,268.090613 202.046375,264.944392 C202.046375,262.508381 205.134722,263.421591 205.134722,261.645774 C205.134722,259.361572 203.868506,259.158571 195.716466,259.158571 C193.084238,259.158571 191.514529,259.259778 191.514529,261.747569 C191.514529,263.725798 194.754916,262.406586 194.754916,265.046187 C194.754916,268.090613 189.286175,268.142393 187.26152,268.142393 C180.020546,268.142393 179.362489,266.771401 179.362489,265.147393 C179.362489,262.761985 182.096859,263.472194 183.565013,261.645774 C184.67919,260.275371 185.742295,257.838771 186.501907,256.214175 L189.691811,249.262128 Z" id="Fill-38" fill="#000000"></path>
                <path d="M247.367319,260.671908 C246.492695,259.648557 243.456566,255.912879 242.272899,255.912879 C240.934711,255.912879 240.728882,257.244126 240.728882,258.727837 L240.728882,259.802208 C240.728882,262.258251 243.97084,262.462922 243.97084,264.970578 C243.97084,266.607347 242.78777,268.143264 233.730691,268.143264 C225.600738,268.143264 224.570996,266.760998 224.570996,265.021597 C224.570996,262.36029 227.144159,263.741369 227.76105,259.495499 C228.224613,256.629522 228.275921,253.354797 228.275921,250.4378 C228.275921,247.265114 228.327825,243.581049 227.76105,240.459975 C227.092254,236.059267 224.365167,237.952912 224.365167,234.831246 C224.365167,234.012564 223.901604,231.14718 235.171495,231.14718 C237.590137,231.14718 242.941695,231.096161 242.941695,234.627169 C242.941695,237.338308 240.111395,235.701539 240.111395,241.739016 C240.111395,242.40464 240.162703,243.888351 241.089232,243.888351 C242.478728,243.888351 246.544003,238.617349 246.544003,237.44094 C246.544003,236.365976 245.720686,235.854597 245.720686,234.729207 C245.720686,230.94251 252.513048,231.14718 254.982998,231.14718 C257.453544,231.14718 263.422589,230.890898 263.422589,234.524537 C263.422589,238.720574 258.071031,236.212918 256.269281,238.003932 C255.240732,239.027876 250.866415,242.148357 250.866415,244.297692 C250.866415,245.679364 252.101986,246.907386 252.924706,247.879718 L263.679726,260.108917 C265.223743,261.848911 268.362489,261.644834 268.362489,264.764721 C268.362489,267.323989 265.738018,267.579679 263.731035,267.579679 L254.982998,267.579679 C252.976014,267.579679 252.924706,267.426621 250.866415,264.918965 L247.367319,260.671908 Z" id="Fill-40" fill="#000000"></path>
                <path d="M290.451933,232.154715 C297.294472,232.154715 298.264197,231.143264 299.081774,231.143264 C301.992132,231.143264 303.217609,236.097967 303.217609,238.321284 C303.217609,239.989064 302.553957,241.959811 300.56241,241.959811 C296.528402,241.959811 299.796339,237.108246 290.094354,237.108246 C284.426377,237.108246 284.988202,238.119697 284.988202,243.93173 C284.988202,246.863532 285.140942,246.964325 288.256139,246.964325 C292.136815,246.964325 289.226456,241.353878 292.851972,241.353878 C295.813836,241.353878 296.01749,247.065119 296.01749,249.037038 C296.01749,251.10975 295.660504,257.173768 292.596812,257.173768 C289.430702,257.173768 292.596812,251.866873 287.439747,251.866873 C285.294867,251.866873 285.345781,253.78781 285.345781,255.40578 C285.345781,262.785387 285.8561,262.430851 291.217411,262.430851 C301.686059,262.430851 298.724195,255.304986 302.911536,255.304986 C304.545504,255.304986 305.362489,257.123371 305.362489,258.539168 C305.362489,261.976695 302.60487,268.143264 300.56241,268.143264 C300.204831,268.143264 299.387847,267.990315 298.315703,267.839711 C297.192053,267.738332 295.762331,267.586555 294.026535,267.586555 L273.03951,267.586555 C269.669154,267.586555 269.61824,266.070551 269.61824,265.413635 C269.61824,262.633024 273.090424,264.856927 273.448002,259.500222 C274.060741,250.300472 274.111654,251.210544 273.601335,242.061191 C273.243756,234.328221 269.362489,238.321284 269.362489,234.732567 C269.362489,231.649575 273.652248,232.154715 275.745623,232.154715 L290.451933,232.154715 Z" id="Fill-42" fill="#000000"></path>
                <path d="M149.647333,284.157588 C147.67245,284.157588 147.722952,284.769124 147.722952,285.788942 L147.722952,293.432847 C147.722952,294.503478 147.267255,295.675146 150.002025,295.675146 C153.345173,295.675146 154.661762,293.126784 154.661762,290.017699 C154.661762,286.806987 153.040984,284.157588 149.647333,284.157588 L149.647333,284.157588 Z M136.073316,286.603732 C136.073316,282.781484 131.362489,284.463061 131.362489,281.252348 C131.362489,279.213895 133.591059,278.7548 135.161334,278.7548 C136.428008,278.7548 137.643591,278.857018 138.90909,278.857018 C146.254269,278.857018 150.711409,278.143264 152.838387,278.143264 C159.727281,278.143264 166.362489,282.169948 166.362489,289.813853 C166.362489,297.407536 159.980381,301.484443 152.939392,301.484443 C151.420206,301.484443 149.90102,301.230375 148.533341,301.230375 C147.92555,301.230375 147.722952,301.484443 147.722952,302.044575 L147.722952,305.000628 C147.87446,311.371829 151.572301,308.72184 151.572301,311.676711 C151.572301,314.989641 144.278211,315.143264 141.999139,315.143264 C139.872161,315.143264 132.375475,315.091268 132.375475,311.778929 C132.375475,308.976499 136.073316,310.708889 136.073316,306.530354 L136.073316,286.603732 Z" id="Fill-44" fill="#000000"></path>
                <path d="M172.374963,314.429487 C170.720913,314.429487 168.086173,314.531708 168.086173,312.187116 C168.086173,309.027117 172.116761,311.677191 172.271922,305.765487 C172.374963,302.045929 172.374963,298.783708 172.374963,295.776746 C172.374963,292.718968 172.116761,289.864451 172.013121,287.011115 C171.91008,282.730226 167.362489,284.972006 167.362489,282.066674 C167.362489,278.347116 175.475186,278.143264 178.006884,278.143264 C188.340957,278.143264 188.858559,279.875709 188.858559,281.608745 C188.858559,284.564893 184.775852,282.321341 184.775852,287.113337 L184.775852,303.319265 C184.775852,306.988598 185.396495,308.773041 189.064642,308.773041 C197.848904,308.773041 194.852322,301.68845 198.159225,301.68845 C200.484242,301.68845 201.362489,304.135263 201.362489,306.070969 C201.362489,310.046967 198.469547,315.143264 196.091812,315.143264 C195.162644,315.143264 194.438959,314.938821 193.508593,314.786375 C192.526706,314.582523 191.390258,314.429487 189.633765,314.429487 L172.374963,314.429487 Z" id="Fill-46" fill="#000000"></path>
                <path d="M222.324318,299.915557 C222.830929,299.915557 224.349587,300.01794 224.349587,299.256539 C224.349587,298.495138 222.881414,295.856714 222.475773,295.145917 C222.020821,294.333325 221.159641,292.455713 220.046037,292.455713 C218.830875,292.455713 217.969696,295.500139 217.767169,296.059127 C217.565229,296.616938 216.704049,298.596345 216.704049,299.205936 C216.704049,300.069131 217.969696,299.915557 218.527379,299.915557 L222.324318,299.915557 Z M211.691361,296.262128 C213.261092,292.760509 215.337433,288.294488 215.337433,284.285072 C215.337433,280.782864 216.957061,278.143264 221.463138,278.143264 C225.868246,278.143264 228.653724,282.661064 230.628509,286.010286 C231.489101,287.481896 239.134639,303.011762 240.957381,307.173576 C242.628082,311.031182 245.362489,308.696966 245.362489,311.588994 C245.362489,315.294202 238.173077,315.142393 235.64061,315.142393 C228.400713,315.142393 224.04609,315.090613 224.04609,311.944392 C224.04609,309.508381 227.135066,310.421591 227.135066,308.645774 C227.135066,306.360984 225.868246,306.157983 217.716684,306.157983 C215.083834,306.157983 213.514104,306.259778 213.514104,308.747569 C213.514104,310.725798 216.754534,309.406586 216.754534,312.046187 C216.754534,315.090613 211.286308,315.142393 209.261038,315.142393 C202.019967,315.142393 201.362489,313.771401 201.362489,312.147393 C201.362489,309.761985 204.096308,310.472194 205.565069,308.645774 C206.67926,307.274782 207.74238,304.838771 208.501416,303.214175 L211.691361,296.262128 Z" id="Fill-48" fill="#000000"></path>
                <path d="M266.459469,278.143264 C271.509703,278.143264 274.75624,280.631153 276.09572,280.631153 C277.229677,280.631153 277.538558,280.274563 278.415016,280.274563 C280.578975,280.274563 283.362489,283.47269 283.362489,289.106924 C283.362489,291.999066 281.609574,294.435762 278.569157,294.435762 C273.261423,294.435762 274.602098,285.452174 265.42887,285.452174 C261.461213,285.452174 259.812254,289.106924 259.812254,291.897856 C259.812254,299.409776 263.88327,305.804263 271.096866,305.804263 C277.64132,305.804263 278.620538,302.303094 280.218713,302.303094 C281.712933,302.303094 282.434651,304.027788 282.434651,305.297035 C282.434651,307.530134 280.063974,312.19934 277.487178,312.19934 C275.735458,312.19934 272.127465,315.143264 266.047827,315.143264 C255.225641,315.143264 246.362489,306.718098 246.362489,296.516457 C246.362489,286.111806 256.30762,278.143264 266.459469,278.143264" id="Fill-50" fill="#000000"></path>
                <path d="M306.451341,279.154715 C313.294472,279.154715 314.264197,278.143264 315.081182,278.143264 C317.992132,278.143264 319.217609,283.097967 319.217609,285.321284 C319.217609,286.989064 318.553365,288.959811 316.56241,288.959811 C312.528402,288.959811 315.796339,284.108246 306.094354,284.108246 C300.426377,284.108246 300.98761,285.119697 300.98761,290.93173 C300.98761,293.863532 301.140942,293.964325 304.256139,293.964325 C308.136815,293.964325 305.225864,288.353878 308.85138,288.353878 C311.813244,288.353878 312.016898,294.065119 312.016898,296.037038 C312.016898,298.10975 311.659912,304.173768 308.59622,304.173768 C305.43011,304.173768 308.59622,298.866873 303.439747,298.866873 C301.294867,298.866873 301.345781,300.78781 301.345781,302.40578 C301.345781,309.785387 301.8561,309.430851 307.217411,309.430851 C317.686059,309.430851 314.724195,302.304986 318.911536,302.304986 C320.544912,302.304986 321.362489,304.123371 321.362489,305.539168 C321.362489,308.976695 318.604278,315.143264 316.56241,315.143264 C316.204831,315.143264 315.387255,314.990315 314.315111,314.839711 C313.191461,314.738332 311.762331,314.586555 310.026535,314.586555 L289.038918,314.586555 C285.668562,314.586555 285.617648,313.070551 285.617648,312.413635 C285.617648,309.633024 289.089832,311.856927 289.448002,306.499636 C290.060148,297.300472 290.111062,298.210544 289.601335,289.061191 C289.243164,281.328221 285.362489,285.321284 285.362489,281.732567 C285.362489,278.649575 289.652248,279.154715 291.745623,279.154715 L306.451341,279.154715 Z" id="Fill-52" fill="#000000"></path>
                <path d="M157.09845,335.987038 C157.940708,335.987038 158.611502,335.706295 159.109674,335.145986 C159.607845,334.585677 159.856931,333.838206 159.856931,332.904161 C159.856931,331.767652 159.182662,331.198515 157.834123,331.198515 C157.112932,331.198515 156.630401,331.307987 156.385949,331.525754 C156.140339,331.74411 155.971771,332.16493 155.879668,332.787038 L155.443478,335.987038 L157.09845,335.987038 Z M154.868263,342.760773 C155.067532,342.979129 155.565704,343.087424 156.362199,343.087424 C157.251377,343.087424 157.948818,342.830812 158.45452,342.316999 C158.960222,341.803186 159.212784,341.102212 159.212784,340.214663 C159.212784,339.498975 158.983393,338.957499 158.523453,338.591415 C158.063513,338.22592 157.473238,338.042289 156.753206,338.042289 L155.167166,338.042289 L154.684635,341.592482 C154.653354,341.764341 154.638293,341.919721 154.638293,342.059799 C154.638293,342.387038 154.715336,342.620696 154.868263,342.760773 L154.868263,342.760773 Z M148.914532,343.274586 L149.259198,342.923804 C149.673375,342.472968 149.933467,341.873225 150.040632,341.125165 L151.14472,333.160773 C151.174842,332.943006 151.190482,332.73289 151.190482,332.530426 C151.190482,332.047807 151.082738,331.658769 150.868408,331.362723 L150.615847,331.011941 C150.416578,330.701182 150.316944,330.435741 150.316944,330.217974 C150.316944,329.875432 150.435115,329.61058 150.673194,329.424007 C150.910115,329.236845 151.205543,329.143264 151.558318,329.143264 L159.121259,329.143264 C160.822573,329.143264 162.121295,329.435189 163.018004,330.019041 C163.914713,330.603481 164.362489,331.424522 164.362489,332.483341 C164.362489,333.246703 164.135994,333.928255 163.684164,334.527409 C163.232334,335.127152 162.719101,335.582697 162.144466,335.894045 C161.569831,336.205394 160.937269,336.454354 160.247938,336.640928 L160.247938,336.687424 C161.305105,336.796896 162.201814,337.127667 162.937486,337.680325 C163.673158,338.232982 164.040415,339.031658 164.040415,340.074586 C164.040415,341.647218 163.427548,342.885548 162.201814,343.788399 C160.974921,344.691838 159.297357,345.143264 157.167383,345.143264 L149.351301,345.143264 C149.044868,345.143264 148.803313,345.073225 148.627215,344.932559 C148.450538,344.792482 148.362489,344.61356 148.362489,344.395793 C148.362489,344.084444 148.546696,343.710709 148.914532,343.274586 L148.914532,343.274586 Z" id="Fill-54" fill="#000000"></path>
                <path d="M172.127676,343.548985 C172.596592,343.548985 173.076729,343.251845 173.569268,342.656982 C174.061217,342.062703 174.452177,341.417636 174.740968,340.722365 C175.029759,340.027677 175.20575,339.432814 175.268351,338.938944 L175.409498,337.919096 C175.424263,337.796504 175.432531,337.679749 175.432531,337.572335 C175.432531,337.170117 175.315006,336.799422 175.081139,336.459668 C174.846681,336.119913 174.487021,335.950035 174.00275,335.950035 C173.174174,335.950035 172.463713,336.560076 171.869595,337.780158 C171.276068,339.000824 170.9796,340.275196 170.9796,341.602692 C170.9796,342.900415 171.362292,343.548985 172.127676,343.548985 M168.565331,336.366848 C170.018735,334.884653 171.783962,334.143264 173.862784,334.143264 C175.190395,334.143264 176.307171,334.513375 177.213703,335.255348 C177.995033,334.513375 178.690139,334.143264 179.299612,334.143264 C179.59608,334.143264 179.826995,334.212732 179.990584,334.35167 C180.155354,334.490608 180.236854,334.683836 180.236854,334.930771 C180.236854,334.992651 180.229176,335.062119 180.213231,335.139761 L179.205711,342.436901 C179.190356,342.52972 179.182088,342.614367 179.182088,342.691425 C179.182088,343.093643 179.346858,343.293877 179.674627,343.293877 C179.815184,343.293877 179.994718,343.255932 180.213231,343.17829 C180.432334,343.101232 180.604191,343.062703 180.728802,343.062703 C181.151063,343.062703 181.362489,343.286871 181.362489,343.73404 C181.362489,344.367432 180.920739,344.927268 180.038421,345.41355 C179.154921,345.900415 178.221223,346.143264 177.236736,346.143264 C176.393395,346.143264 175.776245,345.966381 175.385875,345.610864 C174.994915,345.255932 174.799435,344.800006 174.799435,344.243672 C174.799435,344.058617 174.830735,343.718862 174.893927,343.224408 L174.799435,343.224408 C173.674391,345.170701 172.158977,346.143264 170.252602,346.143264 C169.064957,346.143264 168.120038,345.750386 167.416664,344.962295 C166.71388,344.174204 166.362489,343.093643 166.362489,341.718862 C166.362489,339.633631 167.096573,337.849627 168.565331,336.366848" id="Fill-56" fill="#000000"></path>
                <path d="M182.362489,335.834449 C182.362489,335.247175 182.750658,334.884653 183.528795,334.745716 L186.576551,334.212732 C186.734939,334.166615 186.989318,334.143264 187.338491,334.143264 C187.624668,334.143264 187.834651,334.220321 187.96964,334.375021 C188.104029,334.52972 188.171824,334.722365 188.171824,334.953538 L188.171824,335.11641 L187.195702,341.718862 C187.148306,342.012499 187.124308,342.274612 187.124308,342.506369 C187.124308,343.339995 187.417684,343.757391 188.005037,343.757391 C188.71958,343.757391 189.389726,343.220905 190.017276,342.146766 C190.644226,341.074379 191.084591,339.618453 191.338371,337.780158 L191.648546,335.579341 C191.711541,335.023007 192.115908,334.683836 192.862249,334.560076 L194.433523,334.25885 C194.862489,334.181793 195.163665,334.143264 195.338251,334.143264 C195.941802,334.143264 196.243578,334.397788 196.243578,334.90742 C196.243578,335.00024 196.235179,335.092476 196.21958,335.185879 L195.172064,342.436901 C195.155865,342.52972 195.148066,342.614367 195.148066,342.691425 C195.148066,343.093643 195.314852,343.293877 195.648426,343.293877 C195.790614,343.293877 195.9736,343.255932 196.195582,343.17829 C196.417564,343.101232 196.59215,343.062703 196.71934,343.062703 C197.148306,343.062703 197.362489,343.286871 197.362489,343.73404 C197.362489,344.367432 196.917924,344.927268 196.028795,345.41355 C195.139666,345.900415 194.187543,346.143264 193.171824,346.143264 C192.330091,346.143264 191.711541,345.965797 191.314972,345.610864 C190.917804,345.255932 190.71982,344.799422 190.71982,344.243672 C190.71982,343.950619 190.751018,343.626626 190.814612,343.270526 L190.695822,343.270526 C189.615908,345.186463 188.09263,346.143264 186.124788,346.143264 C184.806693,346.143264 183.886367,345.811682 183.362609,345.14735 C182.83885,344.483018 182.576671,343.696095 182.576671,342.784244 C182.576671,342.475429 182.60007,342.143847 182.648666,341.788331 L183.124428,338.637718 C183.187423,338.297963 183.21982,337.996737 183.21982,337.73404 C183.21982,337.302049 183.132227,337.000824 182.957641,336.830362 L182.672064,336.529136 C182.46568,336.282785 182.362489,336.050444 182.362489,335.834449" id="Fill-58" fill="#000000"></path>
                <path d="M204.127676,343.455631 C204.596592,343.455631 205.076729,343.1478 205.569268,342.531531 C206.061217,341.915867 206.452177,341.247588 206.740968,340.527298 C207.029759,339.807612 207.20575,339.191344 207.268351,338.679702 L207.409498,337.623155 C207.424263,337.496151 207.432531,337.375196 207.432531,337.263917 C207.432531,336.847225 207.315006,336.463191 207.081139,336.11121 C206.846681,335.75923 206.487021,335.583239 206.00275,335.583239 C205.174174,335.583239 204.463713,336.215232 203.869595,337.479218 C203.276068,338.743808 202.9796,340.064038 202.9796,341.439302 C202.9796,342.783723 203.362292,343.455631 204.127676,343.455631 M200.565331,335.991464 C202.018735,334.471658 203.799317,333.711452 205.909439,333.711452 C206.658878,333.711452 207.330952,333.839665 207.92507,334.094881 L208.088659,332.871416 C208.135314,332.567818 208.158937,332.295668 208.158937,332.054966 C208.158937,331.574773 208.073304,331.231259 207.901447,331.023215 L207.666989,330.663373 C207.463241,330.359774 207.362252,330.111815 207.362252,329.918891 C207.362252,329.615293 207.463241,329.3631 207.666989,329.162919 C207.869556,328.963342 208.135314,328.830896 208.463674,328.767394 L211.36989,328.239423 C211.744905,328.175317 212.010664,328.143264 212.166575,328.143264 C212.463044,328.143264 212.68569,328.219466 212.834515,328.371265 C212.982749,328.523669 213.057162,328.719617 213.057162,328.959109 C213.057162,329.02382 213.048894,329.095184 213.034129,329.175619 L211.229334,342.30353 C211.213388,342.399689 211.205711,342.487382 211.205711,342.567213 C211.205711,342.983905 211.36989,343.191344 211.697659,343.191344 C211.822861,343.191344 211.998852,343.152033 212.225633,343.071598 C212.451823,342.991767 212.627814,342.951852 212.752425,342.951852 C213.15874,342.951852 213.362489,343.184086 213.362489,343.647346 C213.362489,344.30353 212.924873,344.883512 212.049642,345.387292 C211.17441,345.891676 210.237169,346.143264 209.236736,346.143264 C208.393395,346.143264 207.776245,345.960016 207.385875,345.591706 C206.994915,345.224002 206.799435,344.75167 206.799435,344.175317 C206.799435,343.920101 206.830735,343.56812 206.893927,343.119375 L206.799435,343.119375 C205.674391,345.135704 204.189687,346.143264 202.346504,346.143264 C201.096258,346.143264 200.120038,345.739877 199.416664,344.931289 C198.71388,344.123306 198.362489,342.999629 198.362489,341.559653 C198.362489,339.384268 199.096573,337.5276 200.565331,335.991464" id="Fill-60" fill="#000000"></path>
                <path d="M214.386195,343.920081 L215.351492,337.755547 C215.383709,337.504744 215.399513,337.268764 215.399513,337.049386 C215.399513,336.610629 215.318667,336.264959 215.158797,336.014157 L214.893158,335.660779 C214.700464,335.394561 214.603205,335.143165 214.603205,334.908371 C214.603205,334.657568 214.707758,334.429889 214.916865,334.225333 C215.125972,334.021963 215.408024,333.888557 215.761803,333.825708 L218.655868,333.260661 C218.8978,333.213821 219.090495,333.190104 219.235776,333.190104 C219.572535,333.190104 219.814467,333.276669 219.95914,333.449208 C220.103205,333.622339 220.175541,333.833416 220.175541,334.084219 L220.175541,334.225333 L219.934825,336.084713 L220.031476,336.084713 C220.529321,335.222023 221.120778,334.516454 221.804023,333.966822 C222.487875,333.417783 223.143158,333.143264 223.770479,333.143264 C224.25252,333.143264 224.638516,333.304536 224.92847,333.625896 C225.217816,333.947849 225.362489,334.374747 225.362489,334.908371 C225.362489,335.613939 225.141224,336.237685 224.699303,336.778424 C224.256167,337.319755 223.770479,337.590124 223.239202,337.590124 C222.869617,337.590124 222.55231,337.40632 222.286671,337.037527 C222.02164,336.669327 221.783963,336.484338 221.574856,336.484338 C221.10862,336.484338 220.694661,336.837715 220.332979,337.543283 C219.971297,338.249445 219.717816,339.104428 219.572535,340.108232 L218.970137,344.108035 C218.873486,344.798187 218.463174,345.143264 217.73981,345.143264 L215.47185,345.143264 C215.102265,345.143264 214.824469,345.045433 214.639677,344.849178 C214.454277,344.653516 214.362489,344.413979 214.362489,344.131751 C214.362489,344.069495 214.370391,343.998938 214.386195,343.920081" id="Fill-62" fill="#000000"></path>
                <path d="M227.73889,330.697505 C227.73889,329.949761 228.016238,329.336767 228.571542,328.859125 C229.126239,328.381483 229.829949,328.143264 230.683281,328.143264 C231.375435,328.143264 231.93074,328.306288 232.348586,328.632335 C232.767042,328.958383 232.976269,329.416173 232.976269,330.005104 C232.976269,330.769091 232.70257,331.389303 232.155781,331.866945 C231.608383,332.344587 230.908322,332.583408 230.056207,332.583408 C229.364053,332.583408 228.804491,332.416173 228.378129,332.082305 C227.951767,331.747836 227.73889,331.286436 227.73889,330.697505 M226.410538,343.373663 L227.135536,338.360829 C227.167771,338.090126 227.183585,337.843484 227.183585,337.620906 C227.183585,337.158904 227.102692,336.808794 226.942122,336.570575 L226.676938,336.212043 C226.483524,335.910057 226.386817,335.663416 226.386817,335.472119 C226.386817,334.851305 226.773037,334.469913 227.545476,334.326139 L230.539133,333.848497 C230.828037,333.800974 231.101736,333.776911 231.359013,333.776911 C231.649134,333.776911 231.869918,333.852708 232.023189,334.003701 C232.175852,334.155295 232.252488,334.342381 232.252488,334.56496 C232.252488,334.628726 232.243973,334.700312 232.228159,334.779718 L231.166207,342.299871 C231.149786,342.411762 231.141879,342.514629 231.141879,342.610278 C231.141879,342.99167 231.302449,343.182967 231.624805,343.182967 C231.769561,343.182967 231.958109,343.143264 232.191666,343.063857 C232.425222,342.984451 232.597956,342.944146 232.711085,342.944146 C233.145354,342.944146 233.362489,343.175147 233.362489,343.636546 C233.362489,344.304884 232.895984,344.890206 231.962367,345.391309 C231.029358,345.893013 230.006941,346.143264 228.89694,346.143264 C227.207914,346.143264 226.362489,345.435223 226.362489,344.019141 C226.362489,343.812203 226.378911,343.596843 226.410538,343.373663" id="Fill-64" fill="#000000"></path>
                <path d="M234.434867,343.35896 L235.907367,332.847067 C235.955416,332.527755 235.979745,332.247148 235.979745,332.007059 C235.979745,331.559538 235.898851,331.223898 235.73889,330.999533 L235.496818,330.639702 C235.304013,330.319181 235.207914,330.079697 235.207914,329.918831 C235.207914,329.59952 235.316177,329.335845 235.533311,329.127204 C235.750446,328.919772 236.019279,328.790959 236.342244,328.743183 L239.310964,328.23942 C239.664948,328.175921 239.930131,328.143264 240.107123,328.143264 C240.41245,328.143264 240.646006,328.219463 240.807792,328.371257 C240.967754,328.523656 241.048647,328.728064 241.048647,328.983272 C241.048647,329.047376 241.040132,329.119342 241.024318,329.19917 L239.165599,342.303054 C239.149786,342.414934 239.141879,342.518952 239.141879,342.615714 C239.141879,342.99913 239.302449,343.191443 239.624197,343.191443 C239.769561,343.191443 239.958109,343.151529 240.191666,343.071096 C240.425222,342.991873 240.605863,342.951354 240.734806,342.951354 C241.153261,342.951354 241.362489,343.183581 241.362489,343.64743 C241.362489,344.319315 240.903891,344.903511 239.986696,345.399412 C239.069501,345.895313 238.071412,346.143264 236.993647,346.143264 L236.89694,346.143264 C236.237022,346.143264 235.706046,346.035617 235.304013,345.819114 C234.901979,345.603215 234.65565,345.347403 234.568067,345.051072 C234.479267,344.755345 234.422702,344.503766 234.398374,344.295125 C234.374653,344.087693 234.362489,343.935294 234.362489,343.839138 C234.362489,343.663153 234.386817,343.502893 234.434867,343.35896" id="Fill-66" fill="#000000"></path>
                <path d="M242.434867,343.35896 L243.907367,332.847067 C243.955416,332.527755 243.979745,332.247148 243.979745,332.007059 C243.979745,331.559538 243.898851,331.223898 243.73889,330.999533 L243.496818,330.639702 C243.304013,330.319181 243.207914,330.079697 243.207914,329.918831 C243.207914,329.59952 243.316177,329.335845 243.533311,329.127204 C243.750446,328.919772 244.019279,328.790959 244.342244,328.743183 L247.310964,328.23942 C247.664948,328.175921 247.930131,328.143264 248.107123,328.143264 C248.41245,328.143264 248.646006,328.219463 248.807792,328.371257 C248.967754,328.523656 249.048647,328.728064 249.048647,328.983272 C249.048647,329.047376 249.040132,329.119342 249.024318,329.19917 L247.165599,342.303054 C247.149786,342.414934 247.141879,342.518952 247.141879,342.615714 C247.141879,342.99913 247.302449,343.191443 247.624197,343.191443 C247.769561,343.191443 247.958109,343.151529 248.191666,343.071096 C248.425222,342.991873 248.605863,342.951354 248.734806,342.951354 C249.153261,342.951354 249.362489,343.183581 249.362489,343.64743 C249.362489,344.319315 248.903891,344.903511 247.986696,345.399412 C247.069501,345.895313 246.071412,346.143264 244.993647,346.143264 L244.89694,346.143264 C244.237022,346.143264 243.706046,346.035617 243.304013,345.819114 C242.901979,345.603215 242.65565,345.347403 242.568067,345.051072 C242.479267,344.755345 242.422702,344.503766 242.398374,344.295125 C242.374653,344.087693 242.362489,343.935294 242.362489,343.839138 C242.362489,343.663153 242.386817,343.502893 242.434867,343.35896" id="Fill-68" fill="#000000"></path>
                <path d="M256.127676,343.548985 C256.596592,343.548985 257.076729,343.251845 257.569268,342.656982 C258.061217,342.062703 258.452177,341.417636 258.740968,340.722365 C259.029759,340.027677 259.20575,339.432814 259.268351,338.938944 L259.409498,337.919096 C259.424263,337.796504 259.432531,337.679749 259.432531,337.572335 C259.432531,337.170117 259.315006,336.799422 259.081139,336.459668 C258.846681,336.119913 258.487021,335.950035 258.00275,335.950035 C257.174174,335.950035 256.463713,336.560076 255.869595,337.780158 C255.276068,339.000824 254.9796,340.275196 254.9796,341.602692 C254.9796,342.900415 255.362292,343.548985 256.127676,343.548985 M252.565331,336.366848 C254.018735,334.884653 255.783962,334.143264 257.862784,334.143264 C259.190395,334.143264 260.307171,334.513375 261.213703,335.255348 C261.995033,334.513375 262.690139,334.143264 263.299612,334.143264 C263.59608,334.143264 263.826995,334.212732 263.990584,334.35167 C264.155354,334.490608 264.236854,334.683836 264.236854,334.930771 C264.236854,334.992651 264.229176,335.062119 264.213231,335.139761 L263.205711,342.436901 C263.190356,342.52972 263.182088,342.614367 263.182088,342.691425 C263.182088,343.093643 263.346858,343.293877 263.674627,343.293877 C263.815184,343.293877 263.994718,343.255932 264.213231,343.17829 C264.432334,343.101232 264.604191,343.062703 264.728802,343.062703 C265.151063,343.062703 265.362489,343.286871 265.362489,343.73404 C265.362489,344.367432 264.920739,344.927268 264.038421,345.41355 C263.154921,345.900415 262.221223,346.143264 261.236736,346.143264 C260.393395,346.143264 259.776245,345.966381 259.385875,345.610864 C258.994915,345.255932 258.799435,344.800006 258.799435,344.243672 C258.799435,344.058617 258.830735,343.718862 258.893927,343.224408 L258.799435,343.224408 C257.674391,345.170701 256.158977,346.143264 254.252602,346.143264 C253.064957,346.143264 252.120038,345.750386 251.416664,344.962295 C250.71388,344.174204 250.362489,343.093643 250.362489,341.718862 C250.362489,339.633631 251.096573,337.849627 252.565331,336.366848" id="Fill-70" fill="#000000"></path>
                <path d="M266.386195,343.920081 L267.351492,337.755547 C267.383709,337.504744 267.399513,337.268764 267.399513,337.049386 C267.399513,336.610629 267.318667,336.264959 267.158797,336.014157 L266.893158,335.660779 C266.700464,335.394561 266.603205,335.143165 266.603205,334.908371 C266.603205,334.657568 266.707758,334.429889 266.916865,334.225333 C267.125972,334.021963 267.408024,333.888557 267.761803,333.825708 L270.655868,333.260661 C270.8978,333.213821 271.090495,333.190104 271.235776,333.190104 C271.572535,333.190104 271.814467,333.276669 271.95914,333.449208 C272.103205,333.622339 272.175541,333.833416 272.175541,334.084219 L272.175541,334.225333 L271.934825,336.084713 L272.031476,336.084713 C272.529321,335.222023 273.120778,334.516454 273.804023,333.966822 C274.487875,333.417783 275.143158,333.143264 275.770479,333.143264 C276.25252,333.143264 276.638516,333.304536 276.92847,333.625896 C277.217816,333.947849 277.362489,334.374747 277.362489,334.908371 C277.362489,335.613939 277.141224,336.237685 276.699303,336.778424 C276.256167,337.319755 275.770479,337.590124 275.239202,337.590124 C274.869617,337.590124 274.55231,337.40632 274.286671,337.037527 C274.02164,336.669327 273.783963,336.484338 273.574856,336.484338 C273.10862,336.484338 272.694661,336.837715 272.332979,337.543283 C271.971297,338.249445 271.717816,339.104428 271.572535,340.108232 L270.970137,344.108035 C270.873486,344.798187 270.463174,345.143264 269.73981,345.143264 L267.47185,345.143264 C267.102265,345.143264 266.824469,345.045433 266.639677,344.849178 C266.454277,344.653516 266.362489,344.413979 266.362489,344.131751 C266.362489,344.069495 266.370391,343.998938 266.386195,343.920081" id="Fill-72" fill="#000000"></path>
                <path d="M283.127676,343.455631 C283.596592,343.455631 284.076729,343.1478 284.569268,342.531531 C285.061217,341.915867 285.452177,341.247588 285.740968,340.527298 C286.029759,339.807612 286.20575,339.191344 286.268351,338.679702 L286.409498,337.623155 C286.424263,337.496151 286.432531,337.375196 286.432531,337.263917 C286.432531,336.847225 286.315006,336.463191 286.081139,336.11121 C285.846681,335.75923 285.487021,335.583239 285.00275,335.583239 C284.174174,335.583239 283.463713,336.215232 282.869595,337.479218 C282.276068,338.743808 281.9796,340.064038 281.9796,341.439302 C281.9796,342.783723 282.362292,343.455631 283.127676,343.455631 M279.565331,335.991464 C281.018735,334.471658 282.799317,333.711452 284.909439,333.711452 C285.658878,333.711452 286.330952,333.839665 286.92507,334.094881 L287.088659,332.871416 C287.135314,332.567818 287.158937,332.295668 287.158937,332.054966 C287.158937,331.574773 287.073304,331.231259 286.901447,331.023215 L286.666989,330.663373 C286.463241,330.359774 286.362252,330.111815 286.362252,329.918891 C286.362252,329.615293 286.463241,329.3631 286.666989,329.162919 C286.869556,328.963342 287.135314,328.830896 287.463674,328.767394 L290.36989,328.239423 C290.744905,328.175317 291.010664,328.143264 291.166575,328.143264 C291.463044,328.143264 291.68569,328.219466 291.834515,328.371265 C291.982749,328.523669 292.057162,328.719617 292.057162,328.959109 C292.057162,329.02382 292.048894,329.095184 292.034129,329.175619 L290.229334,342.30353 C290.213388,342.399689 290.205711,342.487382 290.205711,342.567213 C290.205711,342.983905 290.36989,343.191344 290.697659,343.191344 C290.822861,343.191344 290.998852,343.152033 291.225633,343.071598 C291.451823,342.991767 291.627814,342.951852 291.752425,342.951852 C292.15874,342.951852 292.362489,343.184086 292.362489,343.647346 C292.362489,344.30353 291.924873,344.883512 291.049642,345.387292 C290.17441,345.891676 289.237169,346.143264 288.236736,346.143264 C287.393395,346.143264 286.776245,345.960016 286.385875,345.591706 C285.994915,345.224002 285.799435,344.75167 285.799435,344.175317 C285.799435,343.920101 285.830735,343.56812 285.893927,343.119375 L285.799435,343.119375 C284.674391,345.135704 283.189687,346.143264 281.346504,346.143264 C280.096258,346.143264 279.120038,345.739877 278.416664,344.931289 C277.71388,344.123306 277.362489,342.999629 277.362489,341.559653 C277.362489,339.384268 278.096573,337.5276 279.565331,335.991464" id="Fill-74" fill="#000000"></path>
            </g>
        </g>
    </g>
</svg>